<mxfile host="Electron" modified="2024-02-26T16:00:50.893Z" agent="Mozilla/5.0 (Windows NT 10.0; Win64; x64) AppleWebKit/537.36 (KHTML, like Gecko) draw.io/22.1.2 Chrome/114.0.5735.289 Electron/25.9.4 Safari/537.36" etag="Tx82G0YtQPFtRI5OumY1" version="22.1.2" type="device">
  <diagram id="LlBPDixZe5640yyO4xB-" name="Page-2">
    <mxGraphModel dx="592" dy="346" grid="0" gridSize="10" guides="1" tooltips="1" connect="1" arrows="1" fold="1" page="1" pageScale="1" pageWidth="827" pageHeight="1169" background="#ffffff" math="0" shadow="0">
      <root>
        <mxCell id="0" />
        <mxCell id="1" parent="0" />
        <mxCell id="LsisqTwS-jN0SicZDj_E-1" style="edgeStyle=none;rounded=0;orthogonalLoop=1;jettySize=auto;html=1;exitX=0;exitY=0.5;exitDx=0;exitDy=0;entryX=1;entryY=0.5;entryDx=0;entryDy=0;" parent="1" source="LsisqTwS-jN0SicZDj_E-6" target="LsisqTwS-jN0SicZDj_E-7" edge="1">
          <mxGeometry relative="1" as="geometry">
            <mxPoint x="73.61999999999739" y="321.75999999999976" as="targetPoint" />
          </mxGeometry>
        </mxCell>
        <mxCell id="LsisqTwS-jN0SicZDj_E-2" style="edgeStyle=none;rounded=0;orthogonalLoop=1;jettySize=auto;html=1;exitX=0;exitY=0.5;exitDx=0;exitDy=0;entryX=1;entryY=0.5;entryDx=0;entryDy=0;" parent="1" source="LsisqTwS-jN0SicZDj_E-6" target="LsisqTwS-jN0SicZDj_E-8" edge="1">
          <mxGeometry relative="1" as="geometry">
            <mxPoint x="63.18635315477286" y="360.3897090570215" as="targetPoint" />
          </mxGeometry>
        </mxCell>
        <mxCell id="LsisqTwS-jN0SicZDj_E-3" style="edgeStyle=none;rounded=0;orthogonalLoop=1;jettySize=auto;html=1;exitX=0;exitY=0.5;exitDx=0;exitDy=0;entryX=1;entryY=0.5;entryDx=0;entryDy=0;" parent="1" source="LsisqTwS-jN0SicZDj_E-6" target="LsisqTwS-jN0SicZDj_E-11" edge="1">
          <mxGeometry relative="1" as="geometry">
            <mxPoint x="69.87000000000012" y="386.75999999999976" as="targetPoint" />
          </mxGeometry>
        </mxCell>
        <mxCell id="LsisqTwS-jN0SicZDj_E-4" style="edgeStyle=none;rounded=0;orthogonalLoop=1;jettySize=auto;html=1;exitX=0;exitY=0.5;exitDx=0;exitDy=0;entryX=0.5;entryY=0;entryDx=0;entryDy=0;" parent="1" source="LsisqTwS-jN0SicZDj_E-6" target="Ft5KNVJqhhJHQfR0YhRU-29" edge="1">
          <mxGeometry relative="1" as="geometry">
            <mxPoint x="105.99000000000136" y="385.26" as="targetPoint" />
          </mxGeometry>
        </mxCell>
        <mxCell id="LsisqTwS-jN0SicZDj_E-5" style="edgeStyle=none;rounded=0;orthogonalLoop=1;jettySize=auto;html=1;exitX=0;exitY=0.5;exitDx=0;exitDy=0;entryX=0.5;entryY=0;entryDx=0;entryDy=0;" parent="1" source="LsisqTwS-jN0SicZDj_E-6" target="LsisqTwS-jN0SicZDj_E-14" edge="1">
          <mxGeometry relative="1" as="geometry">
            <mxPoint x="123.99000000000136" y="423.25999999999976" as="targetPoint" />
          </mxGeometry>
        </mxCell>
        <mxCell id="LsisqTwS-jN0SicZDj_E-6" value="Doctors" style="whiteSpace=wrap;html=1;align=center;fillColor=#f8cecc;strokeColor=#b85450;" parent="1" vertex="1">
          <mxGeometry x="99.99" y="369.76" width="100" height="40" as="geometry" />
        </mxCell>
        <mxCell id="LsisqTwS-jN0SicZDj_E-7" value="&lt;font style=&quot;font-size: 10px;&quot;&gt;id&lt;/font&gt;" style="ellipse;whiteSpace=wrap;html=1;align=center;aspect=fixed;" parent="1" vertex="1">
          <mxGeometry x="16.990000000000002" y="322" width="60" height="24" as="geometry" />
        </mxCell>
        <mxCell id="LsisqTwS-jN0SicZDj_E-8" value="&lt;font style=&quot;font-size: 10px;&quot;&gt;name&lt;/font&gt;" style="ellipse;whiteSpace=wrap;html=1;align=center;aspect=fixed;" parent="1" vertex="1">
          <mxGeometry x="14.870000000000005" y="352" width="60" height="24" as="geometry" />
        </mxCell>
        <mxCell id="LsisqTwS-jN0SicZDj_E-11" value="&lt;span style=&quot;font-size: 10px;&quot;&gt;specialize&lt;/span&gt;" style="ellipse;whiteSpace=wrap;html=1;align=center;aspect=fixed;" parent="1" vertex="1">
          <mxGeometry x="13.620000000000001" y="382" width="60" height="24" as="geometry" />
        </mxCell>
        <mxCell id="LsisqTwS-jN0SicZDj_E-12" style="edgeStyle=none;rounded=0;orthogonalLoop=1;jettySize=auto;html=1;exitX=0.5;exitY=1;exitDx=0;exitDy=0;" parent="1" edge="1">
          <mxGeometry relative="1" as="geometry">
            <mxPoint x="70.25" y="323.5" as="sourcePoint" />
            <mxPoint x="70.25" y="323.5" as="targetPoint" />
          </mxGeometry>
        </mxCell>
        <mxCell id="_b6AfbbAPwl3sDL9jFMd-8" style="edgeStyle=none;rounded=0;orthogonalLoop=1;jettySize=auto;html=1;exitX=0.5;exitY=1;exitDx=0;exitDy=0;entryX=0.5;entryY=0;entryDx=0;entryDy=0;" parent="1" source="LsisqTwS-jN0SicZDj_E-14" target="Ft5KNVJqhhJHQfR0YhRU-30" edge="1">
          <mxGeometry relative="1" as="geometry" />
        </mxCell>
        <mxCell id="_b6AfbbAPwl3sDL9jFMd-9" style="edgeStyle=none;rounded=0;orthogonalLoop=1;jettySize=auto;html=1;exitX=0.5;exitY=1;exitDx=0;exitDy=0;entryX=0.5;entryY=0;entryDx=0;entryDy=0;" parent="1" source="LsisqTwS-jN0SicZDj_E-14" target="Ft5KNVJqhhJHQfR0YhRU-33" edge="1">
          <mxGeometry relative="1" as="geometry" />
        </mxCell>
        <mxCell id="LsisqTwS-jN0SicZDj_E-14" value="&lt;font style=&quot;font-size: 10px;&quot;&gt;address&lt;/font&gt;" style="ellipse;whiteSpace=wrap;html=1;align=center;aspect=fixed;" parent="1" vertex="1">
          <mxGeometry x="61" y="445.15999999999997" width="67.5" height="27" as="geometry" />
        </mxCell>
        <mxCell id="_b6AfbbAPwl3sDL9jFMd-59" style="edgeStyle=none;rounded=0;orthogonalLoop=1;jettySize=auto;html=1;exitX=1;exitY=0;exitDx=0;exitDy=0;" parent="1" source="LsisqTwS-jN0SicZDj_E-15" target="LsisqTwS-jN0SicZDj_E-24" edge="1">
          <mxGeometry relative="1" as="geometry" />
        </mxCell>
        <mxCell id="_b6AfbbAPwl3sDL9jFMd-60" style="edgeStyle=none;rounded=0;orthogonalLoop=1;jettySize=auto;html=1;exitX=1;exitY=0;exitDx=0;exitDy=0;entryX=0.5;entryY=1;entryDx=0;entryDy=0;" parent="1" source="LsisqTwS-jN0SicZDj_E-15" target="LsisqTwS-jN0SicZDj_E-18" edge="1">
          <mxGeometry relative="1" as="geometry" />
        </mxCell>
        <mxCell id="_b6AfbbAPwl3sDL9jFMd-61" style="edgeStyle=none;rounded=0;orthogonalLoop=1;jettySize=auto;html=1;exitX=1;exitY=0;exitDx=0;exitDy=0;entryX=0;entryY=0.5;entryDx=0;entryDy=0;" parent="1" source="LsisqTwS-jN0SicZDj_E-15" target="LsisqTwS-jN0SicZDj_E-17" edge="1">
          <mxGeometry relative="1" as="geometry" />
        </mxCell>
        <mxCell id="_b6AfbbAPwl3sDL9jFMd-62" style="edgeStyle=none;rounded=0;orthogonalLoop=1;jettySize=auto;html=1;exitX=1;exitY=0;exitDx=0;exitDy=0;entryX=0.5;entryY=1;entryDx=0;entryDy=0;" parent="1" source="LsisqTwS-jN0SicZDj_E-15" target="C7EOLfJrnvmh7N3INcHJ-1" edge="1">
          <mxGeometry relative="1" as="geometry">
            <mxPoint x="757.0000000000032" y="514.9999999999998" as="targetPoint" />
          </mxGeometry>
        </mxCell>
        <mxCell id="_b6AfbbAPwl3sDL9jFMd-63" style="edgeStyle=none;rounded=0;orthogonalLoop=1;jettySize=auto;html=1;exitX=1;exitY=0;exitDx=0;exitDy=0;entryX=0;entryY=0.5;entryDx=0;entryDy=0;" parent="1" source="LsisqTwS-jN0SicZDj_E-15" target="LsisqTwS-jN0SicZDj_E-23" edge="1">
          <mxGeometry relative="1" as="geometry">
            <mxPoint x="757.0000000000032" y="538.9999999999998" as="targetPoint" />
          </mxGeometry>
        </mxCell>
        <mxCell id="_b6AfbbAPwl3sDL9jFMd-64" style="edgeStyle=none;rounded=0;orthogonalLoop=1;jettySize=auto;html=1;exitX=1;exitY=0;exitDx=0;exitDy=0;entryX=0;entryY=0.5;entryDx=0;entryDy=0;" parent="1" source="LsisqTwS-jN0SicZDj_E-15" target="LsisqTwS-jN0SicZDj_E-22" edge="1">
          <mxGeometry relative="1" as="geometry">
            <mxPoint x="753.9999999999964" y="564.9999999999998" as="targetPoint" />
          </mxGeometry>
        </mxCell>
        <mxCell id="_b6AfbbAPwl3sDL9jFMd-65" style="edgeStyle=none;rounded=0;orthogonalLoop=1;jettySize=auto;html=1;exitX=1;exitY=0;exitDx=0;exitDy=0;entryX=0;entryY=0.5;entryDx=0;entryDy=0;" parent="1" source="LsisqTwS-jN0SicZDj_E-15" target="LsisqTwS-jN0SicZDj_E-20" edge="1">
          <mxGeometry relative="1" as="geometry" />
        </mxCell>
        <mxCell id="_b6AfbbAPwl3sDL9jFMd-66" style="edgeStyle=none;rounded=0;orthogonalLoop=1;jettySize=auto;html=1;exitX=1;exitY=0;exitDx=0;exitDy=0;entryX=0;entryY=0.5;entryDx=0;entryDy=0;" parent="1" source="LsisqTwS-jN0SicZDj_E-15" target="LsisqTwS-jN0SicZDj_E-21" edge="1">
          <mxGeometry relative="1" as="geometry" />
        </mxCell>
        <mxCell id="_b6AfbbAPwl3sDL9jFMd-67" style="edgeStyle=none;rounded=0;orthogonalLoop=1;jettySize=auto;html=1;exitX=1;exitY=0;exitDx=0;exitDy=0;entryX=0.5;entryY=0;entryDx=0;entryDy=0;" parent="1" source="LsisqTwS-jN0SicZDj_E-15" target="LsisqTwS-jN0SicZDj_E-16" edge="1">
          <mxGeometry relative="1" as="geometry" />
        </mxCell>
        <mxCell id="LsisqTwS-jN0SicZDj_E-15" value="Patients" style="whiteSpace=wrap;html=1;align=center;" parent="1" vertex="1">
          <mxGeometry x="602.5" y="536" width="101" height="40" as="geometry" />
        </mxCell>
        <mxCell id="LsisqTwS-jN0SicZDj_E-16" value="&lt;span style=&quot;font-size: 10px;&quot;&gt;companion&lt;/span&gt;" style="ellipse;whiteSpace=wrap;html=1;align=center;aspect=fixed;" parent="1" vertex="1">
          <mxGeometry x="709.5" y="637.76" width="60" height="24" as="geometry" />
        </mxCell>
        <mxCell id="LsisqTwS-jN0SicZDj_E-17" value="&lt;font style=&quot;font-size: 10px;&quot;&gt;name&lt;/font&gt;" style="ellipse;whiteSpace=wrap;html=1;align=center;aspect=fixed;" parent="1" vertex="1">
          <mxGeometry x="767" y="497.76" width="60" height="24" as="geometry" />
        </mxCell>
        <mxCell id="LsisqTwS-jN0SicZDj_E-18" value="&lt;font style=&quot;font-size: 10px;&quot;&gt;id&lt;/font&gt;" style="ellipse;whiteSpace=wrap;html=1;align=center;aspect=fixed;" parent="1" vertex="1">
          <mxGeometry x="692" y="498.76" width="60" height="24" as="geometry" />
        </mxCell>
        <mxCell id="LsisqTwS-jN0SicZDj_E-20" value="&lt;span style=&quot;font-size: 10px;&quot;&gt;weight&lt;/span&gt;" style="ellipse;whiteSpace=wrap;html=1;align=center;aspect=fixed;" parent="1" vertex="1">
          <mxGeometry x="749.5" y="585" width="60" height="24" as="geometry" />
        </mxCell>
        <mxCell id="LsisqTwS-jN0SicZDj_E-21" value="&lt;span style=&quot;font-size: 10px;&quot;&gt;height&lt;/span&gt;" style="ellipse;whiteSpace=wrap;html=1;align=center;aspect=fixed;" parent="1" vertex="1">
          <mxGeometry x="746" y="612" width="60" height="24" as="geometry" />
        </mxCell>
        <mxCell id="LsisqTwS-jN0SicZDj_E-22" value="&lt;span style=&quot;font-size: 10px;&quot;&gt;gender&lt;/span&gt;" style="ellipse;whiteSpace=wrap;html=1;align=center;aspect=fixed;" parent="1" vertex="1">
          <mxGeometry x="757" y="558" width="60" height="24" as="geometry" />
        </mxCell>
        <mxCell id="LsisqTwS-jN0SicZDj_E-23" value="&lt;span style=&quot;font-size: 10px;&quot;&gt;birth&lt;/span&gt;" style="ellipse;whiteSpace=wrap;html=1;align=center;aspect=fixed;" parent="1" vertex="1">
          <mxGeometry x="761.5" y="530.76" width="60" height="24" as="geometry" />
        </mxCell>
        <mxCell id="_b6AfbbAPwl3sDL9jFMd-57" style="edgeStyle=none;rounded=0;orthogonalLoop=1;jettySize=auto;html=1;exitX=0.5;exitY=0;exitDx=0;exitDy=0;entryX=0.5;entryY=1;entryDx=0;entryDy=0;" parent="1" source="LsisqTwS-jN0SicZDj_E-24" target="Ft5KNVJqhhJHQfR0YhRU-2" edge="1">
          <mxGeometry relative="1" as="geometry" />
        </mxCell>
        <mxCell id="_b6AfbbAPwl3sDL9jFMd-58" style="edgeStyle=none;rounded=0;orthogonalLoop=1;jettySize=auto;html=1;exitX=0.5;exitY=0;exitDx=0;exitDy=0;entryX=0.5;entryY=1;entryDx=0;entryDy=0;" parent="1" source="LsisqTwS-jN0SicZDj_E-24" target="Ft5KNVJqhhJHQfR0YhRU-3" edge="1">
          <mxGeometry relative="1" as="geometry" />
        </mxCell>
        <mxCell id="LsisqTwS-jN0SicZDj_E-24" value="&lt;font style=&quot;font-size: 10px;&quot;&gt;address&lt;/font&gt;" style="ellipse;whiteSpace=wrap;html=1;align=center;aspect=fixed;" parent="1" vertex="1">
          <mxGeometry x="654.5" y="476" width="55" height="22" as="geometry" />
        </mxCell>
        <mxCell id="LsisqTwS-jN0SicZDj_E-25" value="&lt;span style=&quot;font-size: 10px;&quot;&gt;date_out&lt;/span&gt;" style="ellipse;whiteSpace=wrap;html=1;align=center;aspect=fixed;" parent="1" vertex="1">
          <mxGeometry x="692" y="29" width="60" height="24" as="geometry" />
        </mxCell>
        <mxCell id="_b6AfbbAPwl3sDL9jFMd-14" style="edgeStyle=none;rounded=0;orthogonalLoop=1;jettySize=auto;html=1;exitX=0.5;exitY=1;exitDx=0;exitDy=0;entryX=0.5;entryY=0;entryDx=0;entryDy=0;" parent="1" source="LsisqTwS-jN0SicZDj_E-33" target="LsisqTwS-jN0SicZDj_E-34" edge="1">
          <mxGeometry relative="1" as="geometry" />
        </mxCell>
        <mxCell id="_b6AfbbAPwl3sDL9jFMd-15" style="edgeStyle=none;rounded=0;orthogonalLoop=1;jettySize=auto;html=1;exitX=0.5;exitY=1;exitDx=0;exitDy=0;entryX=0.5;entryY=0;entryDx=0;entryDy=0;" parent="1" source="LsisqTwS-jN0SicZDj_E-33" target="LsisqTwS-jN0SicZDj_E-35" edge="1">
          <mxGeometry relative="1" as="geometry" />
        </mxCell>
        <mxCell id="_b6AfbbAPwl3sDL9jFMd-16" style="edgeStyle=none;rounded=0;orthogonalLoop=1;jettySize=auto;html=1;exitX=0.5;exitY=1;exitDx=0;exitDy=0;entryX=0.5;entryY=0;entryDx=0;entryDy=0;" parent="1" source="LsisqTwS-jN0SicZDj_E-33" target="LsisqTwS-jN0SicZDj_E-36" edge="1">
          <mxGeometry relative="1" as="geometry" />
        </mxCell>
        <mxCell id="LsisqTwS-jN0SicZDj_E-33" value="medicine" style="whiteSpace=wrap;html=1;align=center;fillColor=#f8cecc;strokeColor=#b85450;" parent="1" vertex="1">
          <mxGeometry x="102.49" y="1020.6" width="100" height="40" as="geometry" />
        </mxCell>
        <mxCell id="LsisqTwS-jN0SicZDj_E-34" value="&lt;font style=&quot;font-size: 10px;&quot;&gt;id&lt;/font&gt;" style="ellipse;whiteSpace=wrap;html=1;align=center;aspect=fixed;" parent="1" vertex="1">
          <mxGeometry x="58" y="1115.6" width="60" height="24" as="geometry" />
        </mxCell>
        <mxCell id="LsisqTwS-jN0SicZDj_E-35" value="&lt;font style=&quot;font-size: 10px;&quot;&gt;name&lt;/font&gt;" style="ellipse;whiteSpace=wrap;html=1;align=center;aspect=fixed;" parent="1" vertex="1">
          <mxGeometry x="122" y="1115.6" width="60" height="24" as="geometry" />
        </mxCell>
        <mxCell id="LsisqTwS-jN0SicZDj_E-36" value="&lt;font style=&quot;font-size: 10px;&quot;&gt;amount&lt;/font&gt;" style="ellipse;whiteSpace=wrap;html=1;align=center;aspect=fixed;" parent="1" vertex="1">
          <mxGeometry x="187" y="1113.6" width="60" height="24" as="geometry" />
        </mxCell>
        <mxCell id="_b6AfbbAPwl3sDL9jFMd-34" style="edgeStyle=none;rounded=0;orthogonalLoop=1;jettySize=auto;html=1;exitX=0.5;exitY=1;exitDx=0;exitDy=0;entryX=0.5;entryY=0;entryDx=0;entryDy=0;" parent="1" source="LsisqTwS-jN0SicZDj_E-37" target="LsisqTwS-jN0SicZDj_E-38" edge="1">
          <mxGeometry relative="1" as="geometry" />
        </mxCell>
        <mxCell id="_b6AfbbAPwl3sDL9jFMd-35" style="edgeStyle=none;rounded=0;orthogonalLoop=1;jettySize=auto;html=1;exitX=0.5;exitY=1;exitDx=0;exitDy=0;" parent="1" source="LsisqTwS-jN0SicZDj_E-37" target="LsisqTwS-jN0SicZDj_E-41" edge="1">
          <mxGeometry relative="1" as="geometry" />
        </mxCell>
        <mxCell id="_b6AfbbAPwl3sDL9jFMd-36" style="edgeStyle=none;rounded=0;orthogonalLoop=1;jettySize=auto;html=1;exitX=0.5;exitY=1;exitDx=0;exitDy=0;entryX=0.5;entryY=0;entryDx=0;entryDy=0;" parent="1" source="LsisqTwS-jN0SicZDj_E-37" target="LsisqTwS-jN0SicZDj_E-39" edge="1">
          <mxGeometry relative="1" as="geometry" />
        </mxCell>
        <mxCell id="_b6AfbbAPwl3sDL9jFMd-37" style="edgeStyle=none;rounded=0;orthogonalLoop=1;jettySize=auto;html=1;exitX=0.5;exitY=1;exitDx=0;exitDy=0;entryX=0.5;entryY=0;entryDx=0;entryDy=0;" parent="1" source="LsisqTwS-jN0SicZDj_E-37" target="LsisqTwS-jN0SicZDj_E-40" edge="1">
          <mxGeometry relative="1" as="geometry" />
        </mxCell>
        <mxCell id="LsisqTwS-jN0SicZDj_E-37" value="shift_nurse" style="whiteSpace=wrap;html=1;align=center;flipV=1;flipH=1;fillColor=#f8cecc;strokeColor=#b85450;" parent="1" vertex="1">
          <mxGeometry x="343" y="924" width="100" height="40" as="geometry" />
        </mxCell>
        <mxCell id="LsisqTwS-jN0SicZDj_E-38" value="&lt;font style=&quot;font-size: 10px;&quot;&gt;id&lt;/font&gt;" style="ellipse;whiteSpace=wrap;html=1;align=center;aspect=fixed;flipV=1;flipH=1;" parent="1" vertex="1">
          <mxGeometry x="310.25" y="1018.0099999999999" width="60" height="24" as="geometry" />
        </mxCell>
        <mxCell id="LsisqTwS-jN0SicZDj_E-39" value="&lt;font style=&quot;font-size: 10px;&quot;&gt;start_time&lt;/font&gt;" style="ellipse;whiteSpace=wrap;html=1;align=center;aspect=fixed;flipV=1;flipH=1;" parent="1" vertex="1">
          <mxGeometry x="374.25" y="1049.01" width="60" height="24" as="geometry" />
        </mxCell>
        <mxCell id="LsisqTwS-jN0SicZDj_E-40" value="&lt;font style=&quot;font-size: 10px;&quot;&gt;end_time&lt;/font&gt;" style="ellipse;whiteSpace=wrap;html=1;align=center;aspect=fixed;flipV=1;flipH=1;" parent="1" vertex="1">
          <mxGeometry x="421.74" y="1031.41" width="60" height="24" as="geometry" />
        </mxCell>
        <mxCell id="LsisqTwS-jN0SicZDj_E-41" value="&lt;font style=&quot;font-size: 10px;&quot;&gt;name&lt;/font&gt;" style="ellipse;whiteSpace=wrap;html=1;align=center;aspect=fixed;flipV=1;flipH=1;" parent="1" vertex="1">
          <mxGeometry x="317.25" y="1066.01" width="60" height="24" as="geometry" />
        </mxCell>
        <mxCell id="LsisqTwS-jN0SicZDj_E-46" value="supervise" style="shape=rhombus;perimeter=rhombusPerimeter;whiteSpace=wrap;html=1;align=center;" parent="1" vertex="1">
          <mxGeometry x="606.49" y="778" width="95" height="58" as="geometry" />
        </mxCell>
        <mxCell id="LsisqTwS-jN0SicZDj_E-54" value="has" style="shape=rhombus;perimeter=rhombusPerimeter;whiteSpace=wrap;html=1;align=center;" parent="1" vertex="1">
          <mxGeometry x="657" y="694" width="95" height="58" as="geometry" />
        </mxCell>
        <mxCell id="_b6AfbbAPwl3sDL9jFMd-11" style="edgeStyle=none;rounded=0;orthogonalLoop=1;jettySize=auto;html=1;exitX=0;exitY=0.5;exitDx=0;exitDy=0;entryX=1;entryY=0.5;entryDx=0;entryDy=0;" parent="1" source="LsisqTwS-jN0SicZDj_E-59" target="LsisqTwS-jN0SicZDj_E-60" edge="1">
          <mxGeometry relative="1" as="geometry" />
        </mxCell>
        <mxCell id="_b6AfbbAPwl3sDL9jFMd-12" style="edgeStyle=none;rounded=0;orthogonalLoop=1;jettySize=auto;html=1;exitX=0;exitY=0.5;exitDx=0;exitDy=0;entryX=1;entryY=0.5;entryDx=0;entryDy=0;" parent="1" source="LsisqTwS-jN0SicZDj_E-59" target="oTCUaJM6ckMOTD9kZWjs-2" edge="1">
          <mxGeometry relative="1" as="geometry" />
        </mxCell>
        <mxCell id="_b6AfbbAPwl3sDL9jFMd-13" style="edgeStyle=none;rounded=0;orthogonalLoop=1;jettySize=auto;html=1;exitX=0;exitY=0.5;exitDx=0;exitDy=0;entryX=1;entryY=0.5;entryDx=0;entryDy=0;" parent="1" source="LsisqTwS-jN0SicZDj_E-59" target="oTCUaJM6ckMOTD9kZWjs-3" edge="1">
          <mxGeometry relative="1" as="geometry" />
        </mxCell>
        <mxCell id="LsisqTwS-jN0SicZDj_E-59" value="task" style="whiteSpace=wrap;html=1;align=center;" parent="1" vertex="1">
          <mxGeometry x="102.49" y="583" width="100" height="40" as="geometry" />
        </mxCell>
        <mxCell id="LsisqTwS-jN0SicZDj_E-60" value="&lt;font style=&quot;font-size: 10px;&quot;&gt;id&lt;/font&gt;" style="ellipse;whiteSpace=wrap;html=1;align=center;aspect=fixed;" parent="1" vertex="1">
          <mxGeometry x="16.369999999999997" y="544" width="60" height="24" as="geometry" />
        </mxCell>
        <mxCell id="LsisqTwS-jN0SicZDj_E-61" value="set" style="shape=rhombus;perimeter=rhombusPerimeter;whiteSpace=wrap;html=1;align=center;" parent="1" vertex="1">
          <mxGeometry x="103.99" y="497.76" width="95" height="58" as="geometry" />
        </mxCell>
        <mxCell id="LsisqTwS-jN0SicZDj_E-63" style="edgeStyle=none;rounded=0;orthogonalLoop=1;jettySize=auto;html=1;exitX=0;exitY=0.5;exitDx=0;exitDy=0;entryX=0.5;entryY=1;entryDx=0;entryDy=0;" parent="1" source="VqRuoaqJ0kA5WSMAc1_f-3" target="LsisqTwS-jN0SicZDj_E-65" edge="1">
          <mxGeometry relative="1" as="geometry">
            <mxPoint x="241.4899999999999" y="225.6199999999999" as="sourcePoint" />
          </mxGeometry>
        </mxCell>
        <mxCell id="LsisqTwS-jN0SicZDj_E-65" value="&lt;font style=&quot;font-size: 10px;&quot;&gt;name&lt;/font&gt;" style="ellipse;whiteSpace=wrap;html=1;align=center;aspect=fixed;" parent="1" vertex="1">
          <mxGeometry x="195" y="169.19" width="60" height="24" as="geometry" />
        </mxCell>
        <mxCell id="_b6AfbbAPwl3sDL9jFMd-1" style="edgeStyle=none;rounded=0;orthogonalLoop=1;jettySize=auto;html=1;exitX=1;exitY=0.5;exitDx=0;exitDy=0;entryX=0;entryY=0.5;entryDx=0;entryDy=0;" parent="1" source="LsisqTwS-jN0SicZDj_E-67" target="LsisqTwS-jN0SicZDj_E-71" edge="1">
          <mxGeometry relative="1" as="geometry">
            <mxPoint x="562.99" y="545" as="targetPoint" />
          </mxGeometry>
        </mxCell>
        <mxCell id="_b6AfbbAPwl3sDL9jFMd-2" style="edgeStyle=none;rounded=0;orthogonalLoop=1;jettySize=auto;html=1;entryX=-0.087;entryY=0.609;entryDx=0;entryDy=0;exitX=1;exitY=0.5;exitDx=0;exitDy=0;entryPerimeter=0;" parent="1" source="LsisqTwS-jN0SicZDj_E-67" target="LsisqTwS-jN0SicZDj_E-73" edge="1">
          <mxGeometry relative="1" as="geometry">
            <mxPoint x="687.49" y="331" as="sourcePoint" />
          </mxGeometry>
        </mxCell>
        <mxCell id="_b6AfbbAPwl3sDL9jFMd-3" style="edgeStyle=none;rounded=0;orthogonalLoop=1;jettySize=auto;html=1;exitX=1;exitY=0.5;exitDx=0;exitDy=0;entryX=0;entryY=0.5;entryDx=0;entryDy=0;" parent="1" source="LsisqTwS-jN0SicZDj_E-67" target="LsisqTwS-jN0SicZDj_E-72" edge="1">
          <mxGeometry relative="1" as="geometry">
            <Array as="points" />
          </mxGeometry>
        </mxCell>
        <mxCell id="_b6AfbbAPwl3sDL9jFMd-4" style="edgeStyle=none;rounded=0;orthogonalLoop=1;jettySize=auto;html=1;exitX=1;exitY=0.5;exitDx=0;exitDy=0;entryX=0;entryY=0.5;entryDx=0;entryDy=0;" parent="1" source="LsisqTwS-jN0SicZDj_E-67" target="LsisqTwS-jN0SicZDj_E-75" edge="1">
          <mxGeometry relative="1" as="geometry" />
        </mxCell>
        <mxCell id="_b6AfbbAPwl3sDL9jFMd-5" style="edgeStyle=none;rounded=0;orthogonalLoop=1;jettySize=auto;html=1;exitX=1;exitY=0.5;exitDx=0;exitDy=0;entryX=0;entryY=0.5;entryDx=0;entryDy=0;" parent="1" source="LsisqTwS-jN0SicZDj_E-67" target="LsisqTwS-jN0SicZDj_E-74" edge="1">
          <mxGeometry relative="1" as="geometry" />
        </mxCell>
        <mxCell id="LsisqTwS-jN0SicZDj_E-67" value="shift_doctor" style="whiteSpace=wrap;html=1;align=center;fillColor=#f8cecc;strokeColor=#b85450;" parent="1" vertex="1">
          <mxGeometry x="232.5" y="462" width="100" height="40" as="geometry" />
        </mxCell>
        <mxCell id="LsisqTwS-jN0SicZDj_E-68" value="supervise" style="shape=rhombus;perimeter=rhombusPerimeter;whiteSpace=wrap;html=1;align=center;" parent="1" vertex="1">
          <mxGeometry x="237" y="360.76" width="95" height="58" as="geometry" />
        </mxCell>
        <mxCell id="LsisqTwS-jN0SicZDj_E-71" value="&lt;font style=&quot;font-size: 10px;&quot;&gt;id&lt;/font&gt;" style="ellipse;whiteSpace=wrap;html=1;align=center;aspect=fixed;" parent="1" vertex="1">
          <mxGeometry x="364.74" y="398.76" width="60" height="24" as="geometry" />
        </mxCell>
        <mxCell id="LsisqTwS-jN0SicZDj_E-72" value="&lt;font style=&quot;font-size: 10px;&quot;&gt;start_time&lt;/font&gt;" style="ellipse;whiteSpace=wrap;html=1;align=center;aspect=fixed;" parent="1" vertex="1">
          <mxGeometry x="434.25" y="443" width="60" height="24" as="geometry" />
        </mxCell>
        <mxCell id="LsisqTwS-jN0SicZDj_E-73" value="&lt;font style=&quot;font-size: 10px;&quot;&gt;start_date&lt;/font&gt;" style="ellipse;whiteSpace=wrap;html=1;align=center;aspect=fixed;" parent="1" vertex="1">
          <mxGeometry x="414.25" y="415.00000000000006" width="59.5" height="23.8" as="geometry" />
        </mxCell>
        <mxCell id="LsisqTwS-jN0SicZDj_E-74" value="&lt;font style=&quot;font-size: 10px;&quot;&gt;end_time&lt;/font&gt;" style="ellipse;whiteSpace=wrap;html=1;align=center;aspect=fixed;" parent="1" vertex="1">
          <mxGeometry x="417.25" y="502" width="60" height="24" as="geometry" />
        </mxCell>
        <mxCell id="LsisqTwS-jN0SicZDj_E-75" value="&lt;font style=&quot;font-size: 10px;&quot;&gt;end_date&lt;/font&gt;" style="ellipse;whiteSpace=wrap;html=1;align=center;aspect=fixed;" parent="1" vertex="1">
          <mxGeometry x="424.74" y="472.15999999999997" width="60" height="24" as="geometry" />
        </mxCell>
        <mxCell id="LsisqTwS-jN0SicZDj_E-82" value="&lt;span style=&quot;font-size: 10px;&quot;&gt;date_in&lt;/span&gt;" style="ellipse;whiteSpace=wrap;html=1;align=center;aspect=fixed;" parent="1" vertex="1">
          <mxGeometry x="616" y="29" width="60" height="24" as="geometry" />
        </mxCell>
        <mxCell id="oTCUaJM6ckMOTD9kZWjs-2" value="&lt;font style=&quot;font-size: 10px;&quot;&gt;disceription&lt;/font&gt;" style="ellipse;whiteSpace=wrap;html=1;align=center;aspect=fixed;" parent="1" vertex="1">
          <mxGeometry x="16.369999999999997" y="580" width="60" height="24" as="geometry" />
        </mxCell>
        <mxCell id="oTCUaJM6ckMOTD9kZWjs-3" value="&lt;font style=&quot;font-size: 10px;&quot;&gt;status&lt;/font&gt;" style="ellipse;whiteSpace=wrap;html=1;align=center;aspect=fixed;" parent="1" vertex="1">
          <mxGeometry x="12.620000000000001" y="609" width="60" height="24" as="geometry" />
        </mxCell>
        <mxCell id="oTCUaJM6ckMOTD9kZWjs-9" value="" style="endArrow=none;html=1;rounded=0;entryX=0.5;entryY=1;entryDx=0;entryDy=0;exitX=0.5;exitY=0;exitDx=0;exitDy=0;" parent="1" source="LsisqTwS-jN0SicZDj_E-61" target="LsisqTwS-jN0SicZDj_E-6" edge="1">
          <mxGeometry relative="1" as="geometry">
            <mxPoint x="581.99" y="623.26" as="sourcePoint" />
            <mxPoint x="149.99" y="414.76" as="targetPoint" />
          </mxGeometry>
        </mxCell>
        <mxCell id="oTCUaJM6ckMOTD9kZWjs-10" value="1" style="resizable=0;html=1;whiteSpace=wrap;align=right;verticalAlign=bottom;" parent="oTCUaJM6ckMOTD9kZWjs-9" connectable="0" vertex="1">
          <mxGeometry x="1" relative="1" as="geometry">
            <mxPoint y="18" as="offset" />
          </mxGeometry>
        </mxCell>
        <mxCell id="_b6AfbbAPwl3sDL9jFMd-27" style="edgeStyle=none;rounded=0;orthogonalLoop=1;jettySize=auto;html=1;exitX=0.5;exitY=0;exitDx=0;exitDy=0;entryX=0.5;entryY=1;entryDx=0;entryDy=0;" parent="1" source="oTCUaJM6ckMOTD9kZWjs-11" target="oTCUaJM6ckMOTD9kZWjs-12" edge="1">
          <mxGeometry relative="1" as="geometry" />
        </mxCell>
        <mxCell id="_b6AfbbAPwl3sDL9jFMd-28" style="edgeStyle=none;rounded=0;orthogonalLoop=1;jettySize=auto;html=1;exitX=0.5;exitY=0;exitDx=0;exitDy=0;entryX=0.5;entryY=1;entryDx=0;entryDy=0;" parent="1" source="oTCUaJM6ckMOTD9kZWjs-11" target="Ft5KNVJqhhJHQfR0YhRU-28" edge="1">
          <mxGeometry relative="1" as="geometry" />
        </mxCell>
        <mxCell id="_b6AfbbAPwl3sDL9jFMd-29" style="edgeStyle=none;rounded=0;orthogonalLoop=1;jettySize=auto;html=1;exitX=0.5;exitY=0;exitDx=0;exitDy=0;entryX=0.5;entryY=1;entryDx=0;entryDy=0;" parent="1" source="oTCUaJM6ckMOTD9kZWjs-11" target="oTCUaJM6ckMOTD9kZWjs-13" edge="1">
          <mxGeometry relative="1" as="geometry" />
        </mxCell>
        <mxCell id="_b6AfbbAPwl3sDL9jFMd-30" style="edgeStyle=none;rounded=0;orthogonalLoop=1;jettySize=auto;html=1;exitX=0.5;exitY=0;exitDx=0;exitDy=0;entryX=0.5;entryY=1;entryDx=0;entryDy=0;" parent="1" source="oTCUaJM6ckMOTD9kZWjs-11" target="oTCUaJM6ckMOTD9kZWjs-15" edge="1">
          <mxGeometry relative="1" as="geometry" />
        </mxCell>
        <mxCell id="oTCUaJM6ckMOTD9kZWjs-11" value="Nurse" style="whiteSpace=wrap;html=1;align=center;fillColor=#f8cecc;strokeColor=#b85450;" parent="1" vertex="1">
          <mxGeometry x="337" y="863" width="100" height="40" as="geometry" />
        </mxCell>
        <mxCell id="oTCUaJM6ckMOTD9kZWjs-12" value="&lt;font style=&quot;font-size: 10px;&quot;&gt;id&lt;/font&gt;" style="ellipse;whiteSpace=wrap;html=1;align=center;aspect=fixed;" parent="1" vertex="1">
          <mxGeometry x="316.25" y="795" width="60" height="24" as="geometry" />
        </mxCell>
        <mxCell id="oTCUaJM6ckMOTD9kZWjs-13" value="&lt;font style=&quot;font-size: 10px;&quot;&gt;name&lt;/font&gt;" style="ellipse;whiteSpace=wrap;html=1;align=center;aspect=fixed;" parent="1" vertex="1">
          <mxGeometry x="394.74" y="795" width="60" height="24" as="geometry" />
        </mxCell>
        <mxCell id="_b6AfbbAPwl3sDL9jFMd-31" style="edgeStyle=none;rounded=0;orthogonalLoop=1;jettySize=auto;html=1;exitX=0.5;exitY=0;exitDx=0;exitDy=0;entryX=0.5;entryY=1;entryDx=0;entryDy=0;" parent="1" source="oTCUaJM6ckMOTD9kZWjs-15" target="Ft5KNVJqhhJHQfR0YhRU-31" edge="1">
          <mxGeometry relative="1" as="geometry" />
        </mxCell>
        <mxCell id="_b6AfbbAPwl3sDL9jFMd-32" style="edgeStyle=none;rounded=0;orthogonalLoop=1;jettySize=auto;html=1;exitX=0.5;exitY=0;exitDx=0;exitDy=0;entryX=1;entryY=0.5;entryDx=0;entryDy=0;" parent="1" source="oTCUaJM6ckMOTD9kZWjs-15" target="Ft5KNVJqhhJHQfR0YhRU-31" edge="1">
          <mxGeometry relative="1" as="geometry" />
        </mxCell>
        <mxCell id="oTCUaJM6ckMOTD9kZWjs-15" value="&lt;font style=&quot;font-size: 10px;&quot;&gt;address&lt;/font&gt;" style="ellipse;whiteSpace=wrap;html=1;align=center;aspect=fixed;" parent="1" vertex="1">
          <mxGeometry x="441.25" y="810" width="60" height="24" as="geometry" />
        </mxCell>
        <mxCell id="VqRuoaqJ0kA5WSMAc1_f-1" style="edgeStyle=none;rounded=0;orthogonalLoop=1;jettySize=auto;html=1;exitX=0.5;exitY=1;exitDx=0;exitDy=0;entryX=0.5;entryY=0;entryDx=0;entryDy=0;" parent="1" source="oTCUaJM6ckMOTD9kZWjs-19" target="oTCUaJM6ckMOTD9kZWjs-24" edge="1">
          <mxGeometry relative="1" as="geometry" />
        </mxCell>
        <mxCell id="oTCUaJM6ckMOTD9kZWjs-19" value="do" style="shape=rhombus;perimeter=rhombusPerimeter;whiteSpace=wrap;html=1;align=center;" parent="1" vertex="1">
          <mxGeometry x="204.37" y="854" width="95" height="58" as="geometry" />
        </mxCell>
        <mxCell id="oTCUaJM6ckMOTD9kZWjs-20" value="" style="endArrow=none;html=1;rounded=0;exitX=0;exitY=0.5;exitDx=0;exitDy=0;entryX=1;entryY=1;entryDx=0;entryDy=0;" parent="1" source="oTCUaJM6ckMOTD9kZWjs-19" target="LsisqTwS-jN0SicZDj_E-59" edge="1">
          <mxGeometry relative="1" as="geometry">
            <mxPoint x="248.5" y="830.9999999999998" as="sourcePoint" />
            <mxPoint x="201.99" y="711.7599999999998" as="targetPoint" />
          </mxGeometry>
        </mxCell>
        <mxCell id="oTCUaJM6ckMOTD9kZWjs-21" value="N" style="resizable=0;html=1;whiteSpace=wrap;align=right;verticalAlign=bottom;" parent="oTCUaJM6ckMOTD9kZWjs-20" connectable="0" vertex="1">
          <mxGeometry x="1" relative="1" as="geometry">
            <mxPoint x="14" y="16" as="offset" />
          </mxGeometry>
        </mxCell>
        <mxCell id="oTCUaJM6ckMOTD9kZWjs-22" value="" style="endArrow=none;html=1;rounded=0;entryX=0;entryY=0.5;entryDx=0;entryDy=0;exitX=1;exitY=0.5;exitDx=0;exitDy=0;" parent="1" source="oTCUaJM6ckMOTD9kZWjs-19" target="oTCUaJM6ckMOTD9kZWjs-11" edge="1">
          <mxGeometry relative="1" as="geometry">
            <mxPoint x="550.37" y="798" as="sourcePoint" />
            <mxPoint x="366.37" y="798" as="targetPoint" />
          </mxGeometry>
        </mxCell>
        <mxCell id="oTCUaJM6ckMOTD9kZWjs-23" value="1" style="resizable=0;html=1;whiteSpace=wrap;align=right;verticalAlign=bottom;" parent="oTCUaJM6ckMOTD9kZWjs-22" connectable="0" vertex="1">
          <mxGeometry x="1" relative="1" as="geometry">
            <mxPoint x="-4" as="offset" />
          </mxGeometry>
        </mxCell>
        <mxCell id="oTCUaJM6ckMOTD9kZWjs-24" value="&lt;span style=&quot;font-size: 10px;&quot;&gt;donedate&lt;/span&gt;" style="ellipse;whiteSpace=wrap;html=1;align=center;aspect=fixed;" parent="1" vertex="1">
          <mxGeometry x="206.99" y="929" width="60" height="24" as="geometry" />
        </mxCell>
        <mxCell id="zmctm2JLgJo_XFH2kvIi-1" value="has" style="shape=rhombus;perimeter=rhombusPerimeter;whiteSpace=wrap;html=1;align=center;" parent="1" vertex="1">
          <mxGeometry x="105.87" y="898" width="95" height="58" as="geometry" />
        </mxCell>
        <mxCell id="zmctm2JLgJo_XFH2kvIi-2" value="" style="endArrow=none;html=1;rounded=0;entryX=0.5;entryY=1;entryDx=0;entryDy=0;exitX=0.5;exitY=0;exitDx=0;exitDy=0;" parent="1" source="zmctm2JLgJo_XFH2kvIi-1" target="LsisqTwS-jN0SicZDj_E-59" edge="1">
          <mxGeometry relative="1" as="geometry">
            <mxPoint x="570.5" y="895" as="sourcePoint" />
            <mxPoint x="730.5" y="895" as="targetPoint" />
          </mxGeometry>
        </mxCell>
        <mxCell id="zmctm2JLgJo_XFH2kvIi-3" value="M" style="resizable=0;html=1;whiteSpace=wrap;align=right;verticalAlign=bottom;" parent="zmctm2JLgJo_XFH2kvIi-2" connectable="0" vertex="1">
          <mxGeometry x="1" relative="1" as="geometry">
            <mxPoint x="-2" y="18" as="offset" />
          </mxGeometry>
        </mxCell>
        <mxCell id="zmctm2JLgJo_XFH2kvIi-4" value="" style="endArrow=none;html=1;rounded=0;entryX=0.5;entryY=0;entryDx=0;entryDy=0;exitX=0.5;exitY=1;exitDx=0;exitDy=0;" parent="1" source="zmctm2JLgJo_XFH2kvIi-1" target="LsisqTwS-jN0SicZDj_E-33" edge="1">
          <mxGeometry relative="1" as="geometry">
            <mxPoint x="365.87" y="804" as="sourcePoint" />
            <mxPoint x="265.87" y="731" as="targetPoint" />
          </mxGeometry>
        </mxCell>
        <mxCell id="zmctm2JLgJo_XFH2kvIi-5" value="M" style="resizable=0;html=1;whiteSpace=wrap;align=right;verticalAlign=bottom;" parent="zmctm2JLgJo_XFH2kvIi-4" connectable="0" vertex="1">
          <mxGeometry x="1" relative="1" as="geometry">
            <mxPoint x="-4" y="-3" as="offset" />
          </mxGeometry>
        </mxCell>
        <mxCell id="auJBWhPQyHD43crAzyVY-1" style="edgeStyle=none;rounded=0;orthogonalLoop=1;jettySize=auto;html=1;exitX=0.5;exitY=0;exitDx=0;exitDy=0;entryX=0.5;entryY=1;entryDx=0;entryDy=0;" parent="1" source="auJBWhPQyHD43crAzyVY-3" target="auJBWhPQyHD43crAzyVY-23" edge="1">
          <mxGeometry relative="1" as="geometry" />
        </mxCell>
        <mxCell id="auJBWhPQyHD43crAzyVY-2" style="edgeStyle=none;rounded=0;orthogonalLoop=1;jettySize=auto;html=1;exitX=0.5;exitY=0;exitDx=0;exitDy=0;entryX=0.5;entryY=1;entryDx=0;entryDy=0;" parent="1" source="auJBWhPQyHD43crAzyVY-3" target="auJBWhPQyHD43crAzyVY-22" edge="1">
          <mxGeometry relative="1" as="geometry" />
        </mxCell>
        <mxCell id="auJBWhPQyHD43crAzyVY-3" value="ICUs" style="whiteSpace=wrap;html=1;align=center;fillColor=#f8cecc;strokeColor=#b85450;" parent="1" vertex="1">
          <mxGeometry x="99" y="83" width="100" height="40" as="geometry" />
        </mxCell>
        <mxCell id="auJBWhPQyHD43crAzyVY-22" value="&lt;font style=&quot;font-size: 10px;&quot;&gt;name&lt;/font&gt;" style="ellipse;whiteSpace=wrap;html=1;align=center;aspect=fixed;" parent="1" vertex="1">
          <mxGeometry x="155" y="21" width="60" height="24" as="geometry" />
        </mxCell>
        <mxCell id="auJBWhPQyHD43crAzyVY-23" value="&lt;font style=&quot;font-size: 10px;&quot;&gt;id&lt;/font&gt;" style="ellipse;whiteSpace=wrap;html=1;align=center;aspect=fixed;" parent="1" vertex="1">
          <mxGeometry x="95" y="21" width="60" height="24" as="geometry" />
        </mxCell>
        <mxCell id="_b6AfbbAPwl3sDL9jFMd-19" style="edgeStyle=none;rounded=0;orthogonalLoop=1;jettySize=auto;html=1;exitX=0;exitY=1;exitDx=0;exitDy=0;entryX=0.5;entryY=1;entryDx=0;entryDy=0;" parent="1" source="t8pa7TZtYhBp_Gp-vG2y-1" target="t8pa7TZtYhBp_Gp-vG2y-4" edge="1">
          <mxGeometry relative="1" as="geometry" />
        </mxCell>
        <mxCell id="_b6AfbbAPwl3sDL9jFMd-20" style="edgeStyle=none;rounded=0;orthogonalLoop=1;jettySize=auto;html=1;exitX=0;exitY=1;exitDx=0;exitDy=0;entryX=0.5;entryY=1;entryDx=0;entryDy=0;" parent="1" source="t8pa7TZtYhBp_Gp-vG2y-1" target="t8pa7TZtYhBp_Gp-vG2y-5" edge="1">
          <mxGeometry relative="1" as="geometry" />
        </mxCell>
        <mxCell id="t8pa7TZtYhBp_Gp-vG2y-1" value="Device" style="whiteSpace=wrap;html=1;align=center;fillColor=#f8cecc;strokeColor=#b85450;" parent="1" vertex="1">
          <mxGeometry x="459.00130849997913" y="350.25817605686336" width="100" height="40" as="geometry" />
        </mxCell>
        <mxCell id="t8pa7TZtYhBp_Gp-vG2y-2" value="has" style="shape=rhombus;perimeter=rhombusPerimeter;whiteSpace=wrap;html=1;align=center;" parent="1" vertex="1">
          <mxGeometry x="368.00130849997925" y="219.61817605686338" width="91" height="46" as="geometry" />
        </mxCell>
        <mxCell id="t8pa7TZtYhBp_Gp-vG2y-3" value="on" style="shape=rhombus;perimeter=rhombusPerimeter;whiteSpace=wrap;html=1;align=center;" parent="1" vertex="1">
          <mxGeometry x="557.0013084999792" y="407.9981760568634" width="92" height="46" as="geometry" />
        </mxCell>
        <mxCell id="t8pa7TZtYhBp_Gp-vG2y-4" value="&lt;font style=&quot;font-size: 10px;&quot;&gt;id&lt;/font&gt;" style="ellipse;whiteSpace=wrap;html=1;align=center;aspect=fixed;" parent="1" vertex="1">
          <mxGeometry x="370.25130849997936" y="321.9981760568634" width="60" height="24" as="geometry" />
        </mxCell>
        <mxCell id="t8pa7TZtYhBp_Gp-vG2y-5" value="&lt;font style=&quot;font-size: 10px;&quot;&gt;type&lt;/font&gt;" style="ellipse;whiteSpace=wrap;html=1;align=center;aspect=fixed;" parent="1" vertex="1">
          <mxGeometry x="337.00130849997936" y="347.9981760568634" width="60" height="24" as="geometry" />
        </mxCell>
        <mxCell id="t8pa7TZtYhBp_Gp-vG2y-6" value="" style="endArrow=none;html=1;rounded=0;entryX=1;entryY=1;entryDx=0;entryDy=0;exitX=0.5;exitY=0;exitDx=0;exitDy=0;" parent="1" source="t8pa7TZtYhBp_Gp-vG2y-3" target="t8pa7TZtYhBp_Gp-vG2y-1" edge="1">
          <mxGeometry relative="1" as="geometry">
            <mxPoint x="612.4913084999791" y="307.9981760568635" as="sourcePoint" />
            <mxPoint x="732.4913084999793" y="326.9981760568634" as="targetPoint" />
          </mxGeometry>
        </mxCell>
        <mxCell id="t8pa7TZtYhBp_Gp-vG2y-7" value="1" style="resizable=0;html=1;whiteSpace=wrap;align=right;verticalAlign=bottom;" parent="t8pa7TZtYhBp_Gp-vG2y-6" connectable="0" vertex="1">
          <mxGeometry x="1" relative="1" as="geometry">
            <mxPoint y="19" as="offset" />
          </mxGeometry>
        </mxCell>
        <mxCell id="t8pa7TZtYhBp_Gp-vG2y-11" value="" style="endArrow=none;html=1;rounded=0;entryX=1;entryY=0.5;entryDx=0;entryDy=0;exitX=0;exitY=0.5;exitDx=0;exitDy=0;entryPerimeter=0;" parent="1" source="t8pa7TZtYhBp_Gp-vG2y-2" target="VqRuoaqJ0kA5WSMAc1_f-3" edge="1">
          <mxGeometry relative="1" as="geometry">
            <mxPoint x="369.99130849997937" y="245.61817605686338" as="sourcePoint" />
            <mxPoint x="341.49" y="245.6199999999999" as="targetPoint" />
          </mxGeometry>
        </mxCell>
        <mxCell id="t8pa7TZtYhBp_Gp-vG2y-12" value="1" style="resizable=0;html=1;whiteSpace=wrap;align=right;verticalAlign=bottom;" parent="t8pa7TZtYhBp_Gp-vG2y-11" connectable="0" vertex="1">
          <mxGeometry x="1" relative="1" as="geometry">
            <mxPoint x="-2" y="17" as="offset" />
          </mxGeometry>
        </mxCell>
        <mxCell id="M7XOfkUtZO2V20KHS51E-4" value="" style="shape=link;html=1;rounded=0;entryX=0.5;entryY=0;entryDx=0;entryDy=0;exitX=0.5;exitY=1;exitDx=0;exitDy=0;" parent="1" source="LsisqTwS-jN0SicZDj_E-54" target="Cp9pVKNsip2jHLh55wr9-26" edge="1">
          <mxGeometry relative="1" as="geometry">
            <mxPoint x="704.5" y="746" as="sourcePoint" />
            <mxPoint x="707" y="833" as="targetPoint" />
          </mxGeometry>
        </mxCell>
        <mxCell id="M7XOfkUtZO2V20KHS51E-5" value="N" style="resizable=0;html=1;whiteSpace=wrap;align=right;verticalAlign=bottom;" parent="M7XOfkUtZO2V20KHS51E-4" connectable="0" vertex="1">
          <mxGeometry x="1" relative="1" as="geometry">
            <mxPoint x="-5" y="-1" as="offset" />
          </mxGeometry>
        </mxCell>
        <mxCell id="M7XOfkUtZO2V20KHS51E-8" value="" style="shape=link;html=1;rounded=0;entryX=0;entryY=0;entryDx=0;entryDy=0;exitX=1;exitY=0.5;exitDx=0;exitDy=0;" parent="1" source="t8pa7TZtYhBp_Gp-vG2y-2" target="t8pa7TZtYhBp_Gp-vG2y-1" edge="1">
          <mxGeometry relative="1" as="geometry">
            <mxPoint x="618.49" y="314" as="sourcePoint" />
            <mxPoint x="778.49" y="314" as="targetPoint" />
          </mxGeometry>
        </mxCell>
        <mxCell id="M7XOfkUtZO2V20KHS51E-9" value="N" style="resizable=0;html=1;whiteSpace=wrap;align=right;verticalAlign=bottom;" parent="M7XOfkUtZO2V20KHS51E-8" connectable="0" vertex="1">
          <mxGeometry x="1" relative="1" as="geometry">
            <mxPoint y="-1" as="offset" />
          </mxGeometry>
        </mxCell>
        <mxCell id="M7XOfkUtZO2V20KHS51E-10" value="" style="shape=link;html=1;rounded=0;entryX=0.5;entryY=0;entryDx=0;entryDy=0;exitX=0.5;exitY=1;exitDx=0;exitDy=0;width=-4.666666666666667;" parent="1" source="VqRuoaqJ0kA5WSMAc1_f-8" target="VqRuoaqJ0kA5WSMAc1_f-3" edge="1">
          <mxGeometry relative="1" as="geometry">
            <mxPoint x="298.00130849997936" y="175.99817605686349" as="sourcePoint" />
            <mxPoint x="291.49" y="225.6199999999999" as="targetPoint" />
          </mxGeometry>
        </mxCell>
        <mxCell id="M7XOfkUtZO2V20KHS51E-11" value="N" style="resizable=0;html=1;whiteSpace=wrap;align=right;verticalAlign=bottom;" parent="M7XOfkUtZO2V20KHS51E-10" connectable="0" vertex="1">
          <mxGeometry x="1" relative="1" as="geometry">
            <mxPoint x="-4" as="offset" />
          </mxGeometry>
        </mxCell>
        <mxCell id="Ft5KNVJqhhJHQfR0YhRU-47" value="1" style="edgeLabel;html=1;align=center;verticalAlign=middle;resizable=0;points=[];" parent="M7XOfkUtZO2V20KHS51E-10" vertex="1" connectable="0">
          <mxGeometry x="0.5167" y="-9" relative="1" as="geometry">
            <mxPoint x="67" y="18" as="offset" />
          </mxGeometry>
        </mxCell>
        <mxCell id="M7XOfkUtZO2V20KHS51E-18" value="" style="shape=link;html=1;rounded=0;entryX=0.5;entryY=1;entryDx=0;entryDy=0;exitX=0.5;exitY=0;exitDx=0;exitDy=0;" parent="1" source="LsisqTwS-jN0SicZDj_E-68" target="VqRuoaqJ0kA5WSMAc1_f-3" edge="1">
          <mxGeometry relative="1" as="geometry">
            <mxPoint x="871.99" y="359" as="sourcePoint" />
            <mxPoint x="300.49" y="258.6199999999999" as="targetPoint" />
          </mxGeometry>
        </mxCell>
        <mxCell id="M7XOfkUtZO2V20KHS51E-19" value="N" style="resizable=0;html=1;whiteSpace=wrap;align=right;verticalAlign=bottom;" parent="M7XOfkUtZO2V20KHS51E-18" connectable="0" vertex="1">
          <mxGeometry x="1" relative="1" as="geometry">
            <mxPoint x="-2" y="20" as="offset" />
          </mxGeometry>
        </mxCell>
        <mxCell id="M7XOfkUtZO2V20KHS51E-20" value="" style="shape=link;html=1;rounded=0;entryX=0.5;entryY=0;entryDx=0;entryDy=0;exitX=0.5;exitY=1;exitDx=0;exitDy=0;" parent="1" source="LsisqTwS-jN0SicZDj_E-68" target="LsisqTwS-jN0SicZDj_E-67" edge="1">
          <mxGeometry relative="1" as="geometry">
            <mxPoint x="389.3699999999999" y="423.76" as="sourcePoint" />
            <mxPoint x="498.49" y="326" as="targetPoint" />
          </mxGeometry>
        </mxCell>
        <mxCell id="_b6AfbbAPwl3sDL9jFMd-70" value="N" style="edgeLabel;html=1;align=center;verticalAlign=middle;resizable=0;points=[];" parent="M7XOfkUtZO2V20KHS51E-20" vertex="1" connectable="0">
          <mxGeometry x="0.4926" y="-9" relative="1" as="geometry">
            <mxPoint as="offset" />
          </mxGeometry>
        </mxCell>
        <mxCell id="M7XOfkUtZO2V20KHS51E-25" value="" style="shape=link;html=1;rounded=0;entryX=0.5;entryY=0;entryDx=0;entryDy=0;exitX=0.5;exitY=1;exitDx=0;exitDy=0;" parent="1" source="LsisqTwS-jN0SicZDj_E-61" target="LsisqTwS-jN0SicZDj_E-59" edge="1">
          <mxGeometry relative="1" as="geometry">
            <mxPoint x="124.49" y="592.76" as="sourcePoint" />
            <mxPoint x="814.49" y="541.76" as="targetPoint" />
          </mxGeometry>
        </mxCell>
        <mxCell id="M7XOfkUtZO2V20KHS51E-26" value="N" style="resizable=0;html=1;whiteSpace=wrap;align=right;verticalAlign=bottom;" parent="M7XOfkUtZO2V20KHS51E-25" connectable="0" vertex="1">
          <mxGeometry x="1" relative="1" as="geometry">
            <mxPoint x="-4" y="-1" as="offset" />
          </mxGeometry>
        </mxCell>
        <mxCell id="M7XOfkUtZO2V20KHS51E-34" value="has" style="shape=rhombus;perimeter=rhombusPerimeter;whiteSpace=wrap;html=1;align=center;" parent="1" vertex="1">
          <mxGeometry x="362" y="546" width="95" height="58" as="geometry" />
        </mxCell>
        <mxCell id="M7XOfkUtZO2V20KHS51E-35" value="" style="shape=link;html=1;rounded=0;entryX=1;entryY=0;entryDx=0;entryDy=0;exitX=0;exitY=0.5;exitDx=0;exitDy=0;" parent="1" source="M7XOfkUtZO2V20KHS51E-34" target="LsisqTwS-jN0SicZDj_E-59" edge="1">
          <mxGeometry relative="1" as="geometry">
            <mxPoint x="602" y="577" as="sourcePoint" />
            <mxPoint x="762" y="577" as="targetPoint" />
          </mxGeometry>
        </mxCell>
        <mxCell id="M7XOfkUtZO2V20KHS51E-36" value="N" style="resizable=0;html=1;whiteSpace=wrap;align=right;verticalAlign=bottom;" parent="M7XOfkUtZO2V20KHS51E-35" connectable="0" vertex="1">
          <mxGeometry x="1" relative="1" as="geometry">
            <mxPoint x="14" y="-1" as="offset" />
          </mxGeometry>
        </mxCell>
        <mxCell id="M7XOfkUtZO2V20KHS51E-37" value="" style="endArrow=none;html=1;rounded=0;entryX=0;entryY=1;entryDx=0;entryDy=0;exitX=1;exitY=0.5;exitDx=0;exitDy=0;" parent="1" source="M7XOfkUtZO2V20KHS51E-34" target="LsisqTwS-jN0SicZDj_E-15" edge="1">
          <mxGeometry relative="1" as="geometry">
            <mxPoint x="710" y="726" as="sourcePoint" />
            <mxPoint x="807.0000000000002" y="614" as="targetPoint" />
          </mxGeometry>
        </mxCell>
        <mxCell id="M7XOfkUtZO2V20KHS51E-38" value="1" style="resizable=0;html=1;whiteSpace=wrap;align=right;verticalAlign=bottom;" parent="M7XOfkUtZO2V20KHS51E-37" connectable="0" vertex="1">
          <mxGeometry x="1" relative="1" as="geometry">
            <mxPoint x="-4" y="-1" as="offset" />
          </mxGeometry>
        </mxCell>
        <mxCell id="M7XOfkUtZO2V20KHS51E-45" value="" style="shape=link;html=1;rounded=0;entryX=1;entryY=0;entryDx=0;entryDy=0;exitX=0.5;exitY=1;exitDx=0;exitDy=0;" parent="1" source="LsisqTwS-jN0SicZDj_E-46" target="LsisqTwS-jN0SicZDj_E-37" edge="1">
          <mxGeometry relative="1" as="geometry">
            <mxPoint x="435.87" y="820.14" as="sourcePoint" />
            <mxPoint x="595.87" y="820.14" as="targetPoint" />
          </mxGeometry>
        </mxCell>
        <mxCell id="M7XOfkUtZO2V20KHS51E-46" value="N" style="resizable=0;html=1;whiteSpace=wrap;align=right;verticalAlign=bottom;" parent="M7XOfkUtZO2V20KHS51E-45" connectable="0" vertex="1">
          <mxGeometry x="1" relative="1" as="geometry">
            <mxPoint x="12" y="-8" as="offset" />
          </mxGeometry>
        </mxCell>
        <mxCell id="M7XOfkUtZO2V20KHS51E-47" value="N" style="shape=link;html=1;rounded=0;entryX=0.5;entryY=1;entryDx=0;entryDy=0;exitX=0.5;exitY=0;exitDx=0;exitDy=0;" parent="1" source="LsisqTwS-jN0SicZDj_E-46" target="LsisqTwS-jN0SicZDj_E-15" edge="1">
          <mxGeometry relative="1" as="geometry">
            <mxPoint x="1231" y="698" as="sourcePoint" />
            <mxPoint x="1391" y="698" as="targetPoint" />
          </mxGeometry>
        </mxCell>
        <mxCell id="Ft5KNVJqhhJHQfR0YhRU-2" value="&lt;font style=&quot;font-size: 10px;&quot;&gt;street&lt;/font&gt;" style="ellipse;whiteSpace=wrap;html=1;align=center;aspect=fixed;" parent="1" vertex="1">
          <mxGeometry x="657" y="422.76" width="55" height="22" as="geometry" />
        </mxCell>
        <mxCell id="Ft5KNVJqhhJHQfR0YhRU-3" value="&lt;font style=&quot;font-size: 10px;&quot;&gt;zone&lt;/font&gt;" style="ellipse;whiteSpace=wrap;html=1;align=center;aspect=fixed;" parent="1" vertex="1">
          <mxGeometry x="699" y="443" width="55" height="22" as="geometry" />
        </mxCell>
        <mxCell id="_b6AfbbAPwl3sDL9jFMd-22" style="edgeStyle=none;rounded=0;orthogonalLoop=1;jettySize=auto;html=1;exitX=0.5;exitY=0;exitDx=0;exitDy=0;entryX=0.5;entryY=1;entryDx=0;entryDy=0;" parent="1" source="Ft5KNVJqhhJHQfR0YhRU-4" target="LsisqTwS-jN0SicZDj_E-82" edge="1">
          <mxGeometry relative="1" as="geometry" />
        </mxCell>
        <mxCell id="_b6AfbbAPwl3sDL9jFMd-23" style="edgeStyle=none;rounded=0;orthogonalLoop=1;jettySize=auto;html=1;exitX=0.5;exitY=0;exitDx=0;exitDy=0;entryX=0.5;entryY=1;entryDx=0;entryDy=0;" parent="1" source="Ft5KNVJqhhJHQfR0YhRU-4" target="LsisqTwS-jN0SicZDj_E-25" edge="1">
          <mxGeometry relative="1" as="geometry" />
        </mxCell>
        <mxCell id="Ft5KNVJqhhJHQfR0YhRU-4" value="in" style="shape=rhombus;perimeter=rhombusPerimeter;whiteSpace=wrap;html=1;align=center;" parent="1" vertex="1">
          <mxGeometry x="607.0013084999791" y="76.99817605686337" width="92" height="46" as="geometry" />
        </mxCell>
        <mxCell id="Ft5KNVJqhhJHQfR0YhRU-7" value="" style="endArrow=none;html=1;rounded=0;entryX=1;entryY=0.5;entryDx=0;entryDy=0;exitX=0;exitY=0.5;exitDx=0;exitDy=0;" parent="1" source="Ft5KNVJqhhJHQfR0YhRU-4" target="auJBWhPQyHD43crAzyVY-3" edge="1">
          <mxGeometry relative="1" as="geometry">
            <mxPoint x="792" y="411" as="sourcePoint" />
            <mxPoint x="952" y="411" as="targetPoint" />
          </mxGeometry>
        </mxCell>
        <mxCell id="Ft5KNVJqhhJHQfR0YhRU-8" value="1" style="resizable=0;html=1;whiteSpace=wrap;align=right;verticalAlign=bottom;" parent="Ft5KNVJqhhJHQfR0YhRU-7" connectable="0" vertex="1">
          <mxGeometry x="1" relative="1" as="geometry">
            <mxPoint x="15" as="offset" />
          </mxGeometry>
        </mxCell>
        <mxCell id="Ft5KNVJqhhJHQfR0YhRU-28" value="phone" style="ellipse;shape=doubleEllipse;margin=3;whiteSpace=wrap;html=1;align=center;" parent="1" vertex="1">
          <mxGeometry x="357.25" y="774" width="60" height="24" as="geometry" />
        </mxCell>
        <mxCell id="Ft5KNVJqhhJHQfR0YhRU-29" value="phone" style="ellipse;shape=doubleEllipse;margin=3;whiteSpace=wrap;html=1;align=center;" parent="1" vertex="1">
          <mxGeometry x="31" y="421.15999999999997" width="60" height="24" as="geometry" />
        </mxCell>
        <mxCell id="Ft5KNVJqhhJHQfR0YhRU-30" value="&lt;font style=&quot;font-size: 10px;&quot;&gt;street&lt;/font&gt;" style="ellipse;whiteSpace=wrap;html=1;align=center;aspect=fixed;" parent="1" vertex="1">
          <mxGeometry x="40" y="489" width="55" height="22" as="geometry" />
        </mxCell>
        <mxCell id="Ft5KNVJqhhJHQfR0YhRU-31" value="&lt;font style=&quot;font-size: 10px;&quot;&gt;street&lt;/font&gt;" style="ellipse;whiteSpace=wrap;html=1;align=center;aspect=fixed;" parent="1" vertex="1">
          <mxGeometry x="424.74" y="764" width="55" height="22" as="geometry" />
        </mxCell>
        <mxCell id="Ft5KNVJqhhJHQfR0YhRU-32" value="&lt;font style=&quot;font-size: 10px;&quot;&gt;zone&lt;/font&gt;" style="ellipse;whiteSpace=wrap;html=1;align=center;aspect=fixed;" parent="1" vertex="1">
          <mxGeometry x="479.74" y="764" width="55" height="22" as="geometry" />
        </mxCell>
        <mxCell id="Ft5KNVJqhhJHQfR0YhRU-33" value="&lt;font style=&quot;font-size: 10px;&quot;&gt;zone&lt;/font&gt;" style="ellipse;whiteSpace=wrap;html=1;align=center;aspect=fixed;" parent="1" vertex="1">
          <mxGeometry x="90.99999999999999" y="483" width="55" height="22" as="geometry" />
        </mxCell>
        <mxCell id="Ft5KNVJqhhJHQfR0YhRU-35" value="supervise" style="shape=rhombus;perimeter=rhombusPerimeter;whiteSpace=wrap;html=1;align=center;" parent="1" vertex="1">
          <mxGeometry x="101.5" y="240.76" width="95" height="58" as="geometry" />
        </mxCell>
        <mxCell id="Ft5KNVJqhhJHQfR0YhRU-37" value="" style="shape=link;html=1;rounded=0;entryX=0.5;entryY=1;entryDx=0;entryDy=0;exitX=0.5;exitY=0;exitDx=0;exitDy=0;" parent="1" source="Ft5KNVJqhhJHQfR0YhRU-35" target="auJBWhPQyHD43crAzyVY-3" edge="1">
          <mxGeometry relative="1" as="geometry">
            <mxPoint x="143.5" y="172" as="sourcePoint" />
            <mxPoint x="303.5" y="172" as="targetPoint" />
          </mxGeometry>
        </mxCell>
        <mxCell id="Ft5KNVJqhhJHQfR0YhRU-38" value="1" style="resizable=0;html=1;whiteSpace=wrap;align=right;verticalAlign=bottom;" parent="Ft5KNVJqhhJHQfR0YhRU-37" connectable="0" vertex="1">
          <mxGeometry x="1" relative="1" as="geometry">
            <mxPoint x="-2" y="17" as="offset" />
          </mxGeometry>
        </mxCell>
        <mxCell id="Ft5KNVJqhhJHQfR0YhRU-39" value="" style="endArrow=none;html=1;rounded=0;exitX=0.5;exitY=1;exitDx=0;exitDy=0;entryX=0.5;entryY=0;entryDx=0;entryDy=0;" parent="1" source="Ft5KNVJqhhJHQfR0YhRU-35" target="LsisqTwS-jN0SicZDj_E-6" edge="1">
          <mxGeometry relative="1" as="geometry">
            <mxPoint x="149.0000000000001" y="304" as="sourcePoint" />
            <mxPoint x="717" y="471" as="targetPoint" />
          </mxGeometry>
        </mxCell>
        <mxCell id="Ft5KNVJqhhJHQfR0YhRU-40" value="1" style="resizable=0;html=1;whiteSpace=wrap;align=right;verticalAlign=bottom;" parent="Ft5KNVJqhhJHQfR0YhRU-39" connectable="0" vertex="1">
          <mxGeometry x="1" relative="1" as="geometry" />
        </mxCell>
        <mxCell id="Ft5KNVJqhhJHQfR0YhRU-48" value="" style="endArrow=none;html=1;rounded=0;entryX=1;entryY=1;entryDx=0;entryDy=0;exitX=0.5;exitY=0;exitDx=0;exitDy=0;" parent="1" source="VqRuoaqJ0kA5WSMAc1_f-8" target="auJBWhPQyHD43crAzyVY-3" edge="1">
          <mxGeometry relative="1" as="geometry">
            <mxPoint x="307" y="119" as="sourcePoint" />
            <mxPoint x="927" y="351" as="targetPoint" />
          </mxGeometry>
        </mxCell>
        <mxCell id="Ft5KNVJqhhJHQfR0YhRU-49" value="1" style="resizable=0;html=1;whiteSpace=wrap;align=right;verticalAlign=bottom;" parent="Ft5KNVJqhhJHQfR0YhRU-48" connectable="0" vertex="1">
          <mxGeometry x="1" relative="1" as="geometry">
            <mxPoint x="10" as="offset" />
          </mxGeometry>
        </mxCell>
        <mxCell id="_b6AfbbAPwl3sDL9jFMd-21" style="edgeStyle=none;rounded=0;orthogonalLoop=1;jettySize=auto;html=1;exitX=0.5;exitY=0;exitDx=0;exitDy=0;" parent="1" source="t8pa7TZtYhBp_Gp-vG2y-5" target="t8pa7TZtYhBp_Gp-vG2y-5" edge="1">
          <mxGeometry relative="1" as="geometry" />
        </mxCell>
        <mxCell id="_b6AfbbAPwl3sDL9jFMd-40" style="edgeStyle=none;rounded=0;orthogonalLoop=1;jettySize=auto;html=1;exitX=0.5;exitY=1;exitDx=0;exitDy=0;" parent="1" source="oTCUaJM6ckMOTD9kZWjs-12" target="oTCUaJM6ckMOTD9kZWjs-12" edge="1">
          <mxGeometry relative="1" as="geometry" />
        </mxCell>
        <mxCell id="VqRuoaqJ0kA5WSMAc1_f-7" style="edgeStyle=none;rounded=0;orthogonalLoop=1;jettySize=auto;html=1;exitX=0;exitY=0.5;exitDx=0;exitDy=0;entryX=1;entryY=0.5;entryDx=0;entryDy=0;" parent="1" source="VqRuoaqJ0kA5WSMAc1_f-3" target="VqRuoaqJ0kA5WSMAc1_f-6" edge="1">
          <mxGeometry relative="1" as="geometry" />
        </mxCell>
        <mxCell id="VqRuoaqJ0kA5WSMAc1_f-3" value="Unit" style="whiteSpace=wrap;html=1;align=center;fillColor=#f8cecc;strokeColor=#b85450;" parent="1" vertex="1">
          <mxGeometry x="237.00130849997913" y="222.61817605686338" width="100" height="40" as="geometry" />
        </mxCell>
        <mxCell id="VqRuoaqJ0kA5WSMAc1_f-6" value="&lt;font style=&quot;font-size: 10px;&quot;&gt;id&lt;/font&gt;" style="ellipse;whiteSpace=wrap;html=1;align=center;aspect=fixed;" parent="1" vertex="1">
          <mxGeometry x="157" y="189" width="60" height="24" as="geometry" />
        </mxCell>
        <mxCell id="VqRuoaqJ0kA5WSMAc1_f-8" value="has" style="shape=rhombus;perimeter=rhombusPerimeter;whiteSpace=wrap;html=1;align=center;" parent="1" vertex="1">
          <mxGeometry x="241.50130849997925" y="122.99817605686337" width="91" height="46" as="geometry" />
        </mxCell>
        <mxCell id="Cp9pVKNsip2jHLh55wr9-6" value="" style="endArrow=none;html=1;rounded=0;entryX=1;entryY=0.5;entryDx=0;entryDy=0;exitX=0;exitY=0.5;exitDx=0;exitDy=0;" parent="1" source="LsisqTwS-jN0SicZDj_E-68" target="LsisqTwS-jN0SicZDj_E-6" edge="1">
          <mxGeometry relative="1" as="geometry">
            <mxPoint x="250" y="438" as="sourcePoint" />
            <mxPoint x="410" y="438" as="targetPoint" />
          </mxGeometry>
        </mxCell>
        <mxCell id="Cp9pVKNsip2jHLh55wr9-7" value="N" style="resizable=0;html=1;whiteSpace=wrap;align=right;verticalAlign=bottom;" parent="Cp9pVKNsip2jHLh55wr9-6" connectable="0" vertex="1">
          <mxGeometry x="1" relative="1" as="geometry">
            <mxPoint x="15" y="-1" as="offset" />
          </mxGeometry>
        </mxCell>
        <mxCell id="Cp9pVKNsip2jHLh55wr9-13" value="" style="endArrow=none;html=1;rounded=0;entryX=0.5;entryY=0;entryDx=0;entryDy=0;exitX=0.5;exitY=1;exitDx=0;exitDy=0;" parent="1" source="Ft5KNVJqhhJHQfR0YhRU-4" target="LsisqTwS-jN0SicZDj_E-15" edge="1">
          <mxGeometry relative="1" as="geometry">
            <mxPoint x="342" y="422" as="sourcePoint" />
            <mxPoint x="502" y="422" as="targetPoint" />
          </mxGeometry>
        </mxCell>
        <mxCell id="Cp9pVKNsip2jHLh55wr9-14" value="N" style="resizable=0;html=1;whiteSpace=wrap;align=right;verticalAlign=bottom;" parent="Cp9pVKNsip2jHLh55wr9-13" connectable="0" vertex="1">
          <mxGeometry x="1" relative="1" as="geometry" />
        </mxCell>
        <mxCell id="Cp9pVKNsip2jHLh55wr9-15" value="" style="endArrow=none;html=1;rounded=0;entryX=0;entryY=0;entryDx=0;entryDy=0;exitX=0.5;exitY=1;exitDx=0;exitDy=0;" parent="1" source="t8pa7TZtYhBp_Gp-vG2y-3" target="LsisqTwS-jN0SicZDj_E-15" edge="1">
          <mxGeometry relative="1" as="geometry">
            <mxPoint x="603" y="466" as="sourcePoint" />
            <mxPoint x="502" y="489" as="targetPoint" />
          </mxGeometry>
        </mxCell>
        <mxCell id="Cp9pVKNsip2jHLh55wr9-16" value="1" style="resizable=0;html=1;whiteSpace=wrap;align=right;verticalAlign=bottom;" parent="Cp9pVKNsip2jHLh55wr9-15" connectable="0" vertex="1">
          <mxGeometry x="1" relative="1" as="geometry" />
        </mxCell>
        <mxCell id="Cp9pVKNsip2jHLh55wr9-18" value="" style="endArrow=none;html=1;rounded=0;entryX=1;entryY=0.5;entryDx=0;entryDy=0;exitX=0;exitY=0.5;exitDx=0;exitDy=0;" parent="1" source="LsisqTwS-jN0SicZDj_E-46" target="oTCUaJM6ckMOTD9kZWjs-11" edge="1">
          <mxGeometry relative="1" as="geometry">
            <mxPoint x="386" y="733" as="sourcePoint" />
            <mxPoint x="546" y="733" as="targetPoint" />
          </mxGeometry>
        </mxCell>
        <mxCell id="Cp9pVKNsip2jHLh55wr9-19" value="N" style="resizable=0;html=1;whiteSpace=wrap;align=right;verticalAlign=bottom;" parent="Cp9pVKNsip2jHLh55wr9-18" connectable="0" vertex="1">
          <mxGeometry x="1" relative="1" as="geometry">
            <mxPoint x="12" as="offset" />
          </mxGeometry>
        </mxCell>
        <mxCell id="Cp9pVKNsip2jHLh55wr9-24" value="" style="endArrow=none;html=1;rounded=0;entryX=1;entryY=1;entryDx=0;entryDy=0;exitX=0.5;exitY=0;exitDx=0;exitDy=0;" parent="1" source="LsisqTwS-jN0SicZDj_E-54" target="LsisqTwS-jN0SicZDj_E-15" edge="1">
          <mxGeometry relative="1" as="geometry">
            <mxPoint x="506" y="740" as="sourcePoint" />
            <mxPoint x="666" y="740" as="targetPoint" />
          </mxGeometry>
        </mxCell>
        <mxCell id="Cp9pVKNsip2jHLh55wr9-25" value="1" style="resizable=0;html=1;whiteSpace=wrap;align=right;verticalAlign=bottom;" parent="Cp9pVKNsip2jHLh55wr9-24" connectable="0" vertex="1">
          <mxGeometry x="1" relative="1" as="geometry" />
        </mxCell>
        <mxCell id="Cp9pVKNsip2jHLh55wr9-26" value="Vital signs" style="whiteSpace=wrap;html=1;align=center;flipV=1;flipH=1;" parent="1" vertex="1">
          <mxGeometry x="654.5" y="877" width="100" height="40" as="geometry" />
        </mxCell>
        <mxCell id="Cp9pVKNsip2jHLh55wr9-28" value="&lt;span style=&quot;font-size: 10px;&quot;&gt;id&lt;/span&gt;" style="ellipse;whiteSpace=wrap;html=1;align=center;aspect=fixed;" parent="1" vertex="1">
          <mxGeometry x="568" y="885" width="60" height="24" as="geometry" />
        </mxCell>
        <mxCell id="Cp9pVKNsip2jHLh55wr9-29" value="HR" style="ellipse;shape=doubleEllipse;margin=3;whiteSpace=wrap;html=1;align=center;" parent="1" vertex="1">
          <mxGeometry x="573" y="917" width="60" height="24" as="geometry" />
        </mxCell>
        <mxCell id="Cp9pVKNsip2jHLh55wr9-30" value="temprature" style="ellipse;shape=doubleEllipse;margin=3;whiteSpace=wrap;html=1;align=center;" parent="1" vertex="1">
          <mxGeometry x="582" y="993.0000000000001" width="60" height="24" as="geometry" />
        </mxCell>
        <mxCell id="Cp9pVKNsip2jHLh55wr9-31" value="SPO2" style="ellipse;shape=doubleEllipse;margin=3;whiteSpace=wrap;html=1;align=center;" parent="1" vertex="1">
          <mxGeometry x="616" y="1022.9999999999999" width="60" height="24" as="geometry" />
        </mxCell>
        <mxCell id="Cp9pVKNsip2jHLh55wr9-32" value="ETCO2" style="ellipse;shape=doubleEllipse;margin=3;whiteSpace=wrap;html=1;align=center;" parent="1" vertex="1">
          <mxGeometry x="671" y="1007.0000000000001" width="60" height="24" as="geometry" />
        </mxCell>
        <mxCell id="Cp9pVKNsip2jHLh55wr9-33" value="pulse" style="ellipse;shape=doubleEllipse;margin=3;whiteSpace=wrap;html=1;align=center;" parent="1" vertex="1">
          <mxGeometry x="709.5" y="964.5999999999999" width="60" height="24" as="geometry" />
        </mxCell>
        <mxCell id="Cp9pVKNsip2jHLh55wr9-43" value="&lt;span style=&quot;font-size: 10px;&quot;&gt;date&lt;/span&gt;" style="ellipse;whiteSpace=wrap;html=1;align=center;aspect=fixed;" parent="1" vertex="1">
          <mxGeometry x="731" y="932.0000000000001" width="60" height="24" as="geometry" />
        </mxCell>
        <mxCell id="Cp9pVKNsip2jHLh55wr9-46" value="" style="endArrow=classic;html=1;rounded=0;entryX=1;entryY=0.5;entryDx=0;entryDy=0;exitX=0;exitY=1;exitDx=0;exitDy=0;" parent="1" source="Cp9pVKNsip2jHLh55wr9-26" target="Cp9pVKNsip2jHLh55wr9-28" edge="1">
          <mxGeometry width="50" height="50" relative="1" as="geometry">
            <mxPoint x="570" y="1131.6" as="sourcePoint" />
            <mxPoint x="620" y="1081.6" as="targetPoint" />
          </mxGeometry>
        </mxCell>
        <mxCell id="Cp9pVKNsip2jHLh55wr9-49" value="" style="endArrow=classic;html=1;rounded=0;entryX=0.977;entryY=0.317;entryDx=0;entryDy=0;exitX=0;exitY=1;exitDx=0;exitDy=0;entryPerimeter=0;" parent="1" source="Cp9pVKNsip2jHLh55wr9-26" target="Cp9pVKNsip2jHLh55wr9-29" edge="1">
          <mxGeometry width="50" height="50" relative="1" as="geometry">
            <mxPoint x="665" y="1029.6000000000001" as="sourcePoint" />
            <mxPoint x="622" y="1007.6" as="targetPoint" />
          </mxGeometry>
        </mxCell>
        <mxCell id="Cp9pVKNsip2jHLh55wr9-50" value="" style="endArrow=classic;html=1;rounded=0;entryX=1.007;entryY=0.25;entryDx=0;entryDy=0;exitX=0;exitY=1;exitDx=0;exitDy=0;entryPerimeter=0;" parent="1" source="Cp9pVKNsip2jHLh55wr9-26" target="Cp9pVKNsip2jHLh55wr9-30" edge="1">
          <mxGeometry width="50" height="50" relative="1" as="geometry">
            <mxPoint x="675" y="1039.6000000000001" as="sourcePoint" />
            <mxPoint x="626" y="1035.6000000000001" as="targetPoint" />
          </mxGeometry>
        </mxCell>
        <mxCell id="Cp9pVKNsip2jHLh55wr9-51" value="" style="endArrow=classic;html=1;rounded=0;entryX=0.5;entryY=0;entryDx=0;entryDy=0;exitX=0;exitY=1;exitDx=0;exitDy=0;" parent="1" source="Cp9pVKNsip2jHLh55wr9-26" target="Cp9pVKNsip2jHLh55wr9-31" edge="1">
          <mxGeometry width="50" height="50" relative="1" as="geometry">
            <mxPoint x="685" y="1049.6000000000001" as="sourcePoint" />
            <mxPoint x="626" y="1061.6" as="targetPoint" />
          </mxGeometry>
        </mxCell>
        <mxCell id="Cp9pVKNsip2jHLh55wr9-52" value="" style="endArrow=classic;html=1;rounded=0;entryX=0.5;entryY=0;entryDx=0;entryDy=0;exitX=0;exitY=1;exitDx=0;exitDy=0;" parent="1" source="Cp9pVKNsip2jHLh55wr9-26" target="Cp9pVKNsip2jHLh55wr9-32" edge="1">
          <mxGeometry width="50" height="50" relative="1" as="geometry">
            <mxPoint x="695" y="1059.6000000000001" as="sourcePoint" />
            <mxPoint x="626" y="1091.6" as="targetPoint" />
          </mxGeometry>
        </mxCell>
        <mxCell id="Cp9pVKNsip2jHLh55wr9-53" value="" style="endArrow=classic;html=1;rounded=0;entryX=0.5;entryY=0;entryDx=0;entryDy=0;exitX=0;exitY=1;exitDx=0;exitDy=0;" parent="1" source="Cp9pVKNsip2jHLh55wr9-26" target="Cp9pVKNsip2jHLh55wr9-33" edge="1">
          <mxGeometry width="50" height="50" relative="1" as="geometry">
            <mxPoint x="705" y="1069.6" as="sourcePoint" />
            <mxPoint x="631" y="1103.6" as="targetPoint" />
          </mxGeometry>
        </mxCell>
        <mxCell id="Cp9pVKNsip2jHLh55wr9-54" value="" style="endArrow=classic;html=1;rounded=0;entryX=0.5;entryY=0;entryDx=0;entryDy=0;exitX=0;exitY=1;exitDx=0;exitDy=0;" parent="1" source="Cp9pVKNsip2jHLh55wr9-26" target="Cp9pVKNsip2jHLh55wr9-43" edge="1">
          <mxGeometry width="50" height="50" relative="1" as="geometry">
            <mxPoint x="715" y="1079.6" as="sourcePoint" />
            <mxPoint x="691" y="1097.6" as="targetPoint" />
          </mxGeometry>
        </mxCell>
        <mxCell id="Cp9pVKNsip2jHLh55wr9-55" value="&lt;font style=&quot;font-size: 10px;&quot;&gt;time&lt;/font&gt;" style="ellipse;whiteSpace=wrap;html=1;align=center;aspect=fixed;" parent="1" vertex="1">
          <mxGeometry x="721.5" y="1041.6" width="60" height="24" as="geometry" />
        </mxCell>
        <mxCell id="Cp9pVKNsip2jHLh55wr9-56" value="&lt;font style=&quot;font-size: 10px;&quot;&gt;time&lt;/font&gt;" style="ellipse;whiteSpace=wrap;html=1;align=center;aspect=fixed;" parent="1" vertex="1">
          <mxGeometry x="692" y="1072" width="60" height="24" as="geometry" />
        </mxCell>
        <mxCell id="Cp9pVKNsip2jHLh55wr9-58" value="&lt;font style=&quot;font-size: 10px;&quot;&gt;time&lt;/font&gt;" style="ellipse;whiteSpace=wrap;html=1;align=center;aspect=fixed;" parent="1" vertex="1">
          <mxGeometry x="589" y="1055" width="60" height="24" as="geometry" />
        </mxCell>
        <mxCell id="Cp9pVKNsip2jHLh55wr9-59" value="&lt;font style=&quot;font-size: 10px;&quot;&gt;mes&lt;/font&gt;" style="ellipse;whiteSpace=wrap;html=1;align=center;aspect=fixed;" parent="1" vertex="1">
          <mxGeometry x="522" y="938" width="60" height="24" as="geometry" />
        </mxCell>
        <mxCell id="Cp9pVKNsip2jHLh55wr9-60" value="&lt;font style=&quot;font-size: 10px;&quot;&gt;time&lt;/font&gt;" style="ellipse;whiteSpace=wrap;html=1;align=center;aspect=fixed;" parent="1" vertex="1">
          <mxGeometry x="530.49" y="1014.9999999999999" width="60" height="24" as="geometry" />
        </mxCell>
        <mxCell id="Cp9pVKNsip2jHLh55wr9-62" value="" style="endArrow=classic;html=1;rounded=0;entryX=1;entryY=0.5;entryDx=0;entryDy=0;exitX=0;exitY=0.5;exitDx=0;exitDy=0;" parent="1" source="Cp9pVKNsip2jHLh55wr9-29" target="Cp9pVKNsip2jHLh55wr9-59" edge="1">
          <mxGeometry width="50" height="50" relative="1" as="geometry">
            <mxPoint x="665" y="1029.6000000000001" as="sourcePoint" />
            <mxPoint x="631" y="1008.6" as="targetPoint" />
          </mxGeometry>
        </mxCell>
        <mxCell id="Cp9pVKNsip2jHLh55wr9-63" value="" style="endArrow=classic;html=1;rounded=0;entryX=1;entryY=0.5;entryDx=0;entryDy=0;exitX=0.5;exitY=1;exitDx=0;exitDy=0;" parent="1" source="Cp9pVKNsip2jHLh55wr9-30" target="Cp9pVKNsip2jHLh55wr9-60" edge="1">
          <mxGeometry width="50" height="50" relative="1" as="geometry">
            <mxPoint x="577" y="1044.6000000000001" as="sourcePoint" />
            <mxPoint x="566" y="1068.6" as="targetPoint" />
          </mxGeometry>
        </mxCell>
        <mxCell id="Cp9pVKNsip2jHLh55wr9-65" value="" style="endArrow=classic;html=1;rounded=0;entryX=0.5;entryY=0;entryDx=0;entryDy=0;exitX=0;exitY=0.5;exitDx=0;exitDy=0;" parent="1" source="Cp9pVKNsip2jHLh55wr9-31" target="Cp9pVKNsip2jHLh55wr9-58" edge="1">
          <mxGeometry width="50" height="50" relative="1" as="geometry">
            <mxPoint x="617" y="1084.6" as="sourcePoint" />
            <mxPoint x="606" y="1107.6" as="targetPoint" />
          </mxGeometry>
        </mxCell>
        <mxCell id="Cp9pVKNsip2jHLh55wr9-66" value="" style="endArrow=classic;html=1;rounded=0;entryX=0.5;entryY=0;entryDx=0;entryDy=0;exitX=0.5;exitY=1;exitDx=0;exitDy=0;" parent="1" source="Cp9pVKNsip2jHLh55wr9-32" target="Cp9pVKNsip2jHLh55wr9-56" edge="1">
          <mxGeometry width="50" height="50" relative="1" as="geometry">
            <mxPoint x="656" y="1108.6" as="sourcePoint" />
            <mxPoint x="644" y="1125.6" as="targetPoint" />
          </mxGeometry>
        </mxCell>
        <mxCell id="Cp9pVKNsip2jHLh55wr9-67" value="" style="endArrow=classic;html=1;rounded=0;entryX=0.5;entryY=0;entryDx=0;entryDy=0;exitX=0.5;exitY=1;exitDx=0;exitDy=0;" parent="1" source="Cp9pVKNsip2jHLh55wr9-33" target="Cp9pVKNsip2jHLh55wr9-55" edge="1">
          <mxGeometry width="50" height="50" relative="1" as="geometry">
            <mxPoint x="691" y="1084.6" as="sourcePoint" />
            <mxPoint x="704" y="1109.6" as="targetPoint" />
          </mxGeometry>
        </mxCell>
        <mxCell id="AIhlM_fXGX7BydyJeOwd-1" value="&lt;font style=&quot;font-size: 10px;&quot;&gt;time&lt;/font&gt;" style="ellipse;whiteSpace=wrap;html=1;align=center;aspect=fixed;" parent="1" vertex="1">
          <mxGeometry x="74.87" y="682" width="60" height="24" as="geometry" />
        </mxCell>
        <mxCell id="AIhlM_fXGX7BydyJeOwd-2" value="&lt;font style=&quot;font-size: 10px;&quot;&gt;date&lt;/font&gt;" style="ellipse;whiteSpace=wrap;html=1;align=center;aspect=fixed;" parent="1" vertex="1">
          <mxGeometry x="12.620000000000001" y="680.24" width="60" height="24" as="geometry" />
        </mxCell>
        <mxCell id="AIhlM_fXGX7BydyJeOwd-4" style="edgeStyle=none;rounded=0;orthogonalLoop=1;jettySize=auto;html=1;entryX=0.5;entryY=0;entryDx=0;entryDy=0;exitX=0.5;exitY=1;exitDx=0;exitDy=0;" parent="1" source="AIhlM_fXGX7BydyJeOwd-6" target="AIhlM_fXGX7BydyJeOwd-1" edge="1">
          <mxGeometry relative="1" as="geometry">
            <mxPoint x="59" y="707" as="sourcePoint" />
            <mxPoint x="87" y="689" as="targetPoint" />
          </mxGeometry>
        </mxCell>
        <mxCell id="AIhlM_fXGX7BydyJeOwd-5" style="edgeStyle=none;rounded=0;orthogonalLoop=1;jettySize=auto;html=1;exitX=0.5;exitY=1;exitDx=0;exitDy=0;entryX=0.5;entryY=0;entryDx=0;entryDy=0;" parent="1" source="AIhlM_fXGX7BydyJeOwd-6" target="AIhlM_fXGX7BydyJeOwd-2" edge="1">
          <mxGeometry relative="1" as="geometry">
            <mxPoint x="111" y="668" as="sourcePoint" />
            <mxPoint x="93" y="725" as="targetPoint" />
          </mxGeometry>
        </mxCell>
        <mxCell id="AIhlM_fXGX7BydyJeOwd-6" value="duedate" style="ellipse;whiteSpace=wrap;html=1;align=center;aspect=fixed;" parent="1" vertex="1">
          <mxGeometry x="31.000000000000007" y="645.26" width="60" height="24" as="geometry" />
        </mxCell>
        <mxCell id="AIhlM_fXGX7BydyJeOwd-7" style="edgeStyle=none;rounded=0;orthogonalLoop=1;jettySize=auto;html=1;exitX=0;exitY=0.5;exitDx=0;exitDy=0;entryX=0.5;entryY=0;entryDx=0;entryDy=0;" parent="1" source="LsisqTwS-jN0SicZDj_E-59" target="AIhlM_fXGX7BydyJeOwd-6" edge="1">
          <mxGeometry relative="1" as="geometry">
            <mxPoint x="111" y="668" as="sourcePoint" />
            <mxPoint x="87" y="689" as="targetPoint" />
          </mxGeometry>
        </mxCell>
        <mxCell id="AIhlM_fXGX7BydyJeOwd-8" value="&lt;font style=&quot;font-size: 10px;&quot;&gt;time&lt;/font&gt;" style="ellipse;whiteSpace=wrap;html=1;align=center;aspect=fixed;" parent="1" vertex="1">
          <mxGeometry x="573" y="953" width="60" height="24" as="geometry" />
        </mxCell>
        <mxCell id="AIhlM_fXGX7BydyJeOwd-9" value="" style="endArrow=classic;html=1;rounded=0;entryX=1;entryY=0.5;entryDx=0;entryDy=0;exitX=0;exitY=0.5;exitDx=0;exitDy=0;" parent="1" source="Cp9pVKNsip2jHLh55wr9-29" target="AIhlM_fXGX7BydyJeOwd-8" edge="1">
          <mxGeometry width="50" height="50" relative="1" as="geometry">
            <mxPoint x="567.5" y="1060.43" as="sourcePoint" />
            <mxPoint x="631" y="1034.52" as="targetPoint" />
          </mxGeometry>
        </mxCell>
        <mxCell id="AIhlM_fXGX7BydyJeOwd-27" value="has" style="shape=rhombus;perimeter=rhombusPerimeter;whiteSpace=wrap;html=1;align=center;" parent="1" vertex="1">
          <mxGeometry x="522" y="169.19" width="95" height="58" as="geometry" />
        </mxCell>
        <mxCell id="AIhlM_fXGX7BydyJeOwd-46" value="1" style="shape=link;html=1;rounded=0;entryX=0.5;entryY=1;entryDx=0;entryDy=0;exitX=0.5;exitY=0;exitDx=0;exitDy=0;" parent="1" source="AIhlM_fXGX7BydyJeOwd-27" target="AIhlM_fXGX7BydyJeOwd-48" edge="1">
          <mxGeometry relative="1" as="geometry">
            <mxPoint x="-31" y="249" as="sourcePoint" />
            <mxPoint x="108.5" y="144.19000000000017" as="targetPoint" />
          </mxGeometry>
        </mxCell>
        <mxCell id="AIhlM_fXGX7BydyJeOwd-48" value="Coordinates" style="whiteSpace=wrap;html=1;align=center;flipV=1;flipH=1;fillColor=#f8cecc;strokeColor=#b85450;" parent="1" vertex="1">
          <mxGeometry x="456.99869150002064" y="112.00182394313663" width="100" height="40" as="geometry" />
        </mxCell>
        <mxCell id="AIhlM_fXGX7BydyJeOwd-49" value="&lt;font style=&quot;font-size: 10px;&quot;&gt;id&lt;/font&gt;" style="ellipse;whiteSpace=wrap;html=1;align=center;aspect=fixed;" parent="1" vertex="1">
          <mxGeometry x="342" y="47" width="60" height="24" as="geometry" />
        </mxCell>
        <mxCell id="AIhlM_fXGX7BydyJeOwd-51" value="&lt;font style=&quot;font-size: 10px;&quot;&gt;x1&lt;/font&gt;" style="ellipse;whiteSpace=wrap;html=1;align=center;aspect=fixed;" parent="1" vertex="1">
          <mxGeometry x="342" y="9" width="60" height="24" as="geometry" />
        </mxCell>
        <mxCell id="AIhlM_fXGX7BydyJeOwd-52" value="&lt;font style=&quot;font-size: 10px;&quot;&gt;x2&lt;/font&gt;" style="ellipse;whiteSpace=wrap;html=1;align=center;aspect=fixed;" parent="1" vertex="1">
          <mxGeometry x="408" y="12" width="60" height="24" as="geometry" />
        </mxCell>
        <mxCell id="AIhlM_fXGX7BydyJeOwd-53" value="&lt;font style=&quot;font-size: 10px;&quot;&gt;y2&lt;/font&gt;" style="ellipse;whiteSpace=wrap;html=1;align=center;aspect=fixed;" parent="1" vertex="1">
          <mxGeometry x="495.49" y="50" width="60" height="24" as="geometry" />
        </mxCell>
        <mxCell id="AIhlM_fXGX7BydyJeOwd-54" value="&lt;span style=&quot;font-size: 10px;&quot;&gt;y1&lt;/span&gt;" style="ellipse;whiteSpace=wrap;html=1;align=center;aspect=fixed;" parent="1" vertex="1">
          <mxGeometry x="470.5" y="23" width="60" height="24" as="geometry" />
        </mxCell>
        <mxCell id="AIhlM_fXGX7BydyJeOwd-55" value="" style="endArrow=classic;html=1;rounded=0;entryX=1;entryY=0.5;entryDx=0;entryDy=0;exitX=0;exitY=0;exitDx=0;exitDy=0;" parent="1" source="AIhlM_fXGX7BydyJeOwd-48" target="AIhlM_fXGX7BydyJeOwd-49" edge="1">
          <mxGeometry width="50" height="50" relative="1" as="geometry">
            <mxPoint x="445.99869150002064" y="356.0018239431366" as="sourcePoint" />
            <mxPoint x="495.99869150002064" y="306.0018239431366" as="targetPoint" />
          </mxGeometry>
        </mxCell>
        <mxCell id="AIhlM_fXGX7BydyJeOwd-57" value="" style="endArrow=classic;html=1;rounded=0;entryX=1;entryY=1;entryDx=0;entryDy=0;exitX=0;exitY=0;exitDx=0;exitDy=0;" parent="1" source="AIhlM_fXGX7BydyJeOwd-48" target="AIhlM_fXGX7BydyJeOwd-51" edge="1">
          <mxGeometry width="50" height="50" relative="1" as="geometry">
            <mxPoint x="431.99869150002064" y="94.00182394313663" as="sourcePoint" />
            <mxPoint x="394.99869150002064" y="59.00182394313663" as="targetPoint" />
          </mxGeometry>
        </mxCell>
        <mxCell id="AIhlM_fXGX7BydyJeOwd-58" value="" style="endArrow=classic;html=1;rounded=0;entryX=0.5;entryY=1;entryDx=0;entryDy=0;exitX=0;exitY=0;exitDx=0;exitDy=0;" parent="1" source="AIhlM_fXGX7BydyJeOwd-48" target="AIhlM_fXGX7BydyJeOwd-52" edge="1">
          <mxGeometry width="50" height="50" relative="1" as="geometry">
            <mxPoint x="431.99869150002064" y="94.00182394313663" as="sourcePoint" />
            <mxPoint x="402.99869150002064" y="39.00182394313663" as="targetPoint" />
          </mxGeometry>
        </mxCell>
        <mxCell id="AIhlM_fXGX7BydyJeOwd-59" value="" style="endArrow=classic;html=1;rounded=0;entryX=0;entryY=0.5;entryDx=0;entryDy=0;exitX=0;exitY=0;exitDx=0;exitDy=0;" parent="1" source="AIhlM_fXGX7BydyJeOwd-48" target="AIhlM_fXGX7BydyJeOwd-54" edge="1">
          <mxGeometry width="50" height="50" relative="1" as="geometry">
            <mxPoint x="422.99869150002064" y="83.00182394313663" as="sourcePoint" />
            <mxPoint x="447.99869150002064" y="46.00182394313663" as="targetPoint" />
          </mxGeometry>
        </mxCell>
        <mxCell id="AIhlM_fXGX7BydyJeOwd-60" value="" style="endArrow=classic;html=1;rounded=0;entryX=0;entryY=0.5;entryDx=0;entryDy=0;exitX=0;exitY=0;exitDx=0;exitDy=0;" parent="1" source="AIhlM_fXGX7BydyJeOwd-48" target="AIhlM_fXGX7BydyJeOwd-53" edge="1">
          <mxGeometry width="50" height="50" relative="1" as="geometry">
            <mxPoint x="432.99869150002064" y="93.00182394313663" as="sourcePoint" />
            <mxPoint x="480.99869150002064" y="45.00182394313663" as="targetPoint" />
          </mxGeometry>
        </mxCell>
        <mxCell id="AIhlM_fXGX7BydyJeOwd-62" value="&lt;font style=&quot;font-size: 10px;&quot;&gt;mes&lt;/font&gt;" style="ellipse;whiteSpace=wrap;html=1;align=center;aspect=fixed;" parent="1" vertex="1">
          <mxGeometry x="513" y="982.9999999999999" width="60" height="24" as="geometry" />
        </mxCell>
        <mxCell id="AIhlM_fXGX7BydyJeOwd-63" value="" style="endArrow=classic;html=1;rounded=0;entryX=1;entryY=0.5;entryDx=0;entryDy=0;exitX=0;exitY=0.5;exitDx=0;exitDy=0;" parent="1" source="Cp9pVKNsip2jHLh55wr9-30" target="AIhlM_fXGX7BydyJeOwd-62" edge="1">
          <mxGeometry width="50" height="50" relative="1" as="geometry">
            <mxPoint x="583.5" y="1083" as="sourcePoint" />
            <mxPoint x="647.5" y="1056.6" as="targetPoint" />
          </mxGeometry>
        </mxCell>
        <mxCell id="AIhlM_fXGX7BydyJeOwd-64" value="&lt;font style=&quot;font-size: 10px;&quot;&gt;mes&lt;/font&gt;" style="ellipse;whiteSpace=wrap;html=1;align=center;aspect=fixed;" parent="1" vertex="1">
          <mxGeometry x="528.5" y="1042.01" width="60" height="24" as="geometry" />
        </mxCell>
        <mxCell id="AIhlM_fXGX7BydyJeOwd-65" value="" style="endArrow=classic;html=1;rounded=0;entryX=1;entryY=0.5;entryDx=0;entryDy=0;exitX=0.02;exitY=0.722;exitDx=0;exitDy=0;exitPerimeter=0;" parent="1" source="Cp9pVKNsip2jHLh55wr9-31" target="AIhlM_fXGX7BydyJeOwd-64" edge="1">
          <mxGeometry width="50" height="50" relative="1" as="geometry">
            <mxPoint x="623.5" y="1128.4" as="sourcePoint" />
            <mxPoint x="687.5" y="1102" as="targetPoint" />
          </mxGeometry>
        </mxCell>
        <mxCell id="AIhlM_fXGX7BydyJeOwd-66" value="&lt;font style=&quot;font-size: 10px;&quot;&gt;mes&lt;/font&gt;" style="ellipse;whiteSpace=wrap;html=1;align=center;aspect=fixed;" parent="1" vertex="1">
          <mxGeometry x="759" y="1007" width="60" height="24" as="geometry" />
        </mxCell>
        <mxCell id="AIhlM_fXGX7BydyJeOwd-67" value="&lt;font style=&quot;font-size: 10px;&quot;&gt;mes&lt;/font&gt;" style="ellipse;whiteSpace=wrap;html=1;align=center;aspect=fixed;" parent="1" vertex="1">
          <mxGeometry x="628" y="1079" width="60" height="24" as="geometry" />
        </mxCell>
        <mxCell id="AIhlM_fXGX7BydyJeOwd-68" value="" style="endArrow=classic;html=1;rounded=0;entryX=0.5;entryY=0;entryDx=0;entryDy=0;exitX=0.5;exitY=1;exitDx=0;exitDy=0;" parent="1" source="Cp9pVKNsip2jHLh55wr9-32" target="AIhlM_fXGX7BydyJeOwd-67" edge="1">
          <mxGeometry width="50" height="50" relative="1" as="geometry">
            <mxPoint x="691" y="1085" as="sourcePoint" />
            <mxPoint x="704" y="1110" as="targetPoint" />
          </mxGeometry>
        </mxCell>
        <mxCell id="AIhlM_fXGX7BydyJeOwd-69" value="" style="endArrow=classic;html=1;rounded=0;entryX=0.5;entryY=0;entryDx=0;entryDy=0;exitX=0.5;exitY=1;exitDx=0;exitDy=0;" parent="1" source="Cp9pVKNsip2jHLh55wr9-33" target="AIhlM_fXGX7BydyJeOwd-66" edge="1">
          <mxGeometry width="50" height="50" relative="1" as="geometry">
            <mxPoint x="747" y="1078" as="sourcePoint" />
            <mxPoint x="764" y="1124" as="targetPoint" />
          </mxGeometry>
        </mxCell>
        <mxCell id="AIhlM_fXGX7BydyJeOwd-72" value="" style="endArrow=none;html=1;rounded=0;entryX=1;entryY=0;entryDx=0;entryDy=0;exitX=0.5;exitY=1;exitDx=0;exitDy=0;" parent="1" source="AIhlM_fXGX7BydyJeOwd-82" target="t8pa7TZtYhBp_Gp-vG2y-1" edge="1">
          <mxGeometry relative="1" as="geometry">
            <mxPoint x="493" y="318" as="sourcePoint" />
            <mxPoint x="653" y="318" as="targetPoint" />
          </mxGeometry>
        </mxCell>
        <mxCell id="AIhlM_fXGX7BydyJeOwd-73" value="N" style="resizable=0;html=1;whiteSpace=wrap;align=right;verticalAlign=bottom;" parent="AIhlM_fXGX7BydyJeOwd-72" connectable="0" vertex="1">
          <mxGeometry x="1" relative="1" as="geometry" />
        </mxCell>
        <mxCell id="AIhlM_fXGX7BydyJeOwd-74" value="Sign" style="whiteSpace=wrap;html=1;align=center;flipV=1;flipH=1;fillColor=#f8cecc;strokeColor=#b85450;" parent="1" vertex="1">
          <mxGeometry x="681.4986915000206" y="280.62182394313663" width="100" height="40" as="geometry" />
        </mxCell>
        <mxCell id="AIhlM_fXGX7BydyJeOwd-75" value="&lt;font style=&quot;font-size: 10px;&quot;&gt;id&lt;/font&gt;" style="ellipse;whiteSpace=wrap;html=1;align=center;aspect=fixed;" parent="1" vertex="1">
          <mxGeometry x="752" y="213" width="60" height="24" as="geometry" />
        </mxCell>
        <mxCell id="AIhlM_fXGX7BydyJeOwd-76" value="&lt;font style=&quot;font-size: 10px;&quot;&gt;name&lt;/font&gt;" style="ellipse;whiteSpace=wrap;html=1;align=center;aspect=fixed;" parent="1" vertex="1">
          <mxGeometry x="765" y="237" width="60" height="24" as="geometry" />
        </mxCell>
        <mxCell id="AIhlM_fXGX7BydyJeOwd-82" value="has" style="shape=rhombus;perimeter=rhombusPerimeter;whiteSpace=wrap;html=1;align=center;" parent="1" vertex="1">
          <mxGeometry x="513" y="243" width="95" height="58" as="geometry" />
        </mxCell>
        <mxCell id="AIhlM_fXGX7BydyJeOwd-85" value="" style="endArrow=none;html=1;rounded=0;entryX=0;entryY=0.5;entryDx=0;entryDy=0;exitX=1;exitY=0.5;exitDx=0;exitDy=0;" parent="1" source="AIhlM_fXGX7BydyJeOwd-82" target="AIhlM_fXGX7BydyJeOwd-74" edge="1">
          <mxGeometry relative="1" as="geometry">
            <mxPoint x="569" y="331" as="sourcePoint" />
            <mxPoint x="569" y="360" as="targetPoint" />
          </mxGeometry>
        </mxCell>
        <mxCell id="AIhlM_fXGX7BydyJeOwd-86" value="N" style="resizable=0;html=1;whiteSpace=wrap;align=right;verticalAlign=bottom;" parent="AIhlM_fXGX7BydyJeOwd-85" connectable="0" vertex="1">
          <mxGeometry x="1" relative="1" as="geometry" />
        </mxCell>
        <mxCell id="AIhlM_fXGX7BydyJeOwd-87" value="1" style="shape=link;html=1;rounded=0;entryX=0.5;entryY=1;entryDx=0;entryDy=0;exitX=0;exitY=0;exitDx=0;exitDy=0;" parent="1" source="AIhlM_fXGX7BydyJeOwd-74" target="AIhlM_fXGX7BydyJeOwd-27" edge="1">
          <mxGeometry relative="1" as="geometry">
            <mxPoint x="549" y="329" as="sourcePoint" />
            <mxPoint x="709" y="329" as="targetPoint" />
          </mxGeometry>
        </mxCell>
        <mxCell id="AIhlM_fXGX7BydyJeOwd-89" value="" style="endArrow=classic;html=1;rounded=0;entryX=0;entryY=0.5;entryDx=0;entryDy=0;exitX=0.75;exitY=0;exitDx=0;exitDy=0;" parent="1" source="AIhlM_fXGX7BydyJeOwd-74" target="AIhlM_fXGX7BydyJeOwd-75" edge="1">
          <mxGeometry width="50" height="50" relative="1" as="geometry">
            <mxPoint x="757" y="229" as="sourcePoint" />
            <mxPoint x="782" y="189" as="targetPoint" />
          </mxGeometry>
        </mxCell>
        <mxCell id="AIhlM_fXGX7BydyJeOwd-95" value="" style="endArrow=classic;html=1;rounded=0;entryX=0;entryY=0.5;entryDx=0;entryDy=0;exitX=0.75;exitY=0;exitDx=0;exitDy=0;" parent="1" source="AIhlM_fXGX7BydyJeOwd-74" target="AIhlM_fXGX7BydyJeOwd-76" edge="1">
          <mxGeometry width="50" height="50" relative="1" as="geometry">
            <mxPoint x="754" y="291" as="sourcePoint" />
            <mxPoint x="762" y="235" as="targetPoint" />
          </mxGeometry>
        </mxCell>
        <mxCell id="6k_MQGijC9r9m2tAyiyx-1" value="Image" style="whiteSpace=wrap;html=1;align=center;flipV=1;flipH=1;" parent="1" vertex="1">
          <mxGeometry x="394" y="629.76" width="100" height="40" as="geometry" />
        </mxCell>
        <mxCell id="6k_MQGijC9r9m2tAyiyx-2" value="has" style="shape=rhombus;perimeter=rhombusPerimeter;whiteSpace=wrap;html=1;align=center;" parent="1" vertex="1">
          <mxGeometry x="259" y="611.26" width="95" height="58" as="geometry" />
        </mxCell>
        <mxCell id="6k_MQGijC9r9m2tAyiyx-3" value="" style="endArrow=none;html=1;rounded=0;exitX=1;exitY=0.5;exitDx=0;exitDy=0;entryX=0;entryY=0.5;entryDx=0;entryDy=0;" parent="1" source="6k_MQGijC9r9m2tAyiyx-2" target="6k_MQGijC9r9m2tAyiyx-1" edge="1">
          <mxGeometry relative="1" as="geometry">
            <mxPoint x="214" y="893" as="sourcePoint" />
            <mxPoint x="212" y="633" as="targetPoint" />
          </mxGeometry>
        </mxCell>
        <mxCell id="6k_MQGijC9r9m2tAyiyx-4" value="N" style="resizable=0;html=1;whiteSpace=wrap;align=right;verticalAlign=bottom;" parent="6k_MQGijC9r9m2tAyiyx-3" connectable="0" vertex="1">
          <mxGeometry x="1" relative="1" as="geometry">
            <mxPoint x="-2" y="1" as="offset" />
          </mxGeometry>
        </mxCell>
        <mxCell id="6k_MQGijC9r9m2tAyiyx-5" value="" style="endArrow=none;html=1;rounded=0;entryX=1;entryY=0.5;entryDx=0;entryDy=0;exitX=0;exitY=0.5;exitDx=0;exitDy=0;" parent="1" source="6k_MQGijC9r9m2tAyiyx-2" target="LsisqTwS-jN0SicZDj_E-59" edge="1">
          <mxGeometry relative="1" as="geometry">
            <mxPoint x="271" y="787" as="sourcePoint" />
            <mxPoint x="347" y="873" as="targetPoint" />
          </mxGeometry>
        </mxCell>
        <mxCell id="6k_MQGijC9r9m2tAyiyx-6" value="1" style="resizable=0;html=1;whiteSpace=wrap;align=right;verticalAlign=bottom;" parent="6k_MQGijC9r9m2tAyiyx-5" connectable="0" vertex="1">
          <mxGeometry x="1" relative="1" as="geometry">
            <mxPoint x="11" y="1" as="offset" />
          </mxGeometry>
        </mxCell>
        <mxCell id="6k_MQGijC9r9m2tAyiyx-7" value="&lt;font style=&quot;font-size: 10px;&quot;&gt;id&lt;/font&gt;" style="ellipse;whiteSpace=wrap;html=1;align=center;aspect=fixed;" parent="1" vertex="1">
          <mxGeometry x="534.74" y="612" width="60" height="24" as="geometry" />
        </mxCell>
        <mxCell id="6k_MQGijC9r9m2tAyiyx-8" value="&lt;font style=&quot;font-size: 10px;&quot;&gt;path&lt;/font&gt;" style="ellipse;whiteSpace=wrap;html=1;align=center;aspect=fixed;" parent="1" vertex="1">
          <mxGeometry x="522" y="664" width="60" height="24" as="geometry" />
        </mxCell>
        <mxCell id="6k_MQGijC9r9m2tAyiyx-9" style="edgeStyle=none;rounded=0;orthogonalLoop=1;jettySize=auto;html=1;exitX=1;exitY=0;exitDx=0;exitDy=0;entryX=0;entryY=0.5;entryDx=0;entryDy=0;" parent="1" source="6k_MQGijC9r9m2tAyiyx-1" target="6k_MQGijC9r9m2tAyiyx-8" edge="1">
          <mxGeometry relative="1" as="geometry">
            <mxPoint x="403" y="524" as="sourcePoint" />
            <mxPoint x="498" y="563" as="targetPoint" />
          </mxGeometry>
        </mxCell>
        <mxCell id="6k_MQGijC9r9m2tAyiyx-11" style="edgeStyle=none;rounded=0;orthogonalLoop=1;jettySize=auto;html=1;exitX=1;exitY=0;exitDx=0;exitDy=0;entryX=0;entryY=0.5;entryDx=0;entryDy=0;" parent="1" source="6k_MQGijC9r9m2tAyiyx-1" target="6k_MQGijC9r9m2tAyiyx-7" edge="1">
          <mxGeometry relative="1" as="geometry">
            <mxPoint x="480" y="592" as="sourcePoint" />
            <mxPoint x="497" y="578" as="targetPoint" />
          </mxGeometry>
        </mxCell>
        <mxCell id="C7EOLfJrnvmh7N3INcHJ-1" value="&lt;font style=&quot;font-size: 10px;&quot;&gt;phone&lt;/font&gt;" style="ellipse;whiteSpace=wrap;html=1;align=center;aspect=fixed;" parent="1" vertex="1">
          <mxGeometry x="743" y="450.16" width="55" height="22" as="geometry" />
        </mxCell>
        <mxCell id="C7EOLfJrnvmh7N3INcHJ-2" value="&lt;font style=&quot;font-size: 10px;&quot;&gt;phone&lt;/font&gt;" style="ellipse;whiteSpace=wrap;html=1;align=center;aspect=fixed;" parent="1" vertex="1">
          <mxGeometry x="761.5" y="688" width="60" height="24" as="geometry" />
        </mxCell>
        <mxCell id="C7EOLfJrnvmh7N3INcHJ-3" value="" style="endArrow=classic;html=1;rounded=0;entryX=0.5;entryY=0;entryDx=0;entryDy=0;exitX=0.46;exitY=1.017;exitDx=0;exitDy=0;exitPerimeter=0;" parent="1" source="LsisqTwS-jN0SicZDj_E-16" target="C7EOLfJrnvmh7N3INcHJ-2" edge="1">
          <mxGeometry width="50" height="50" relative="1" as="geometry">
            <mxPoint x="751.75" y="661.76" as="sourcePoint" />
            <mxPoint x="775.75" y="796.76" as="targetPoint" />
          </mxGeometry>
        </mxCell>
        <mxCell id="C7EOLfJrnvmh7N3INcHJ-4" value="" style="endArrow=classic;html=1;rounded=0;entryX=0.5;entryY=0;entryDx=0;entryDy=0;exitX=0.5;exitY=1;exitDx=0;exitDy=0;" parent="1" source="LsisqTwS-jN0SicZDj_E-16" target="C7EOLfJrnvmh7N3INcHJ-5" edge="1">
          <mxGeometry width="50" height="50" relative="1" as="geometry">
            <mxPoint x="751.75" y="661.76" as="sourcePoint" />
            <mxPoint x="715.75" y="782.3599999999999" as="targetPoint" />
          </mxGeometry>
        </mxCell>
        <mxCell id="C7EOLfJrnvmh7N3INcHJ-5" value="&lt;font style=&quot;font-size: 10px;&quot;&gt;name&lt;/font&gt;" style="ellipse;whiteSpace=wrap;html=1;align=center;aspect=fixed;" parent="1" vertex="1">
          <mxGeometry x="709.5" y="675.9999999999999" width="60" height="24" as="geometry" />
        </mxCell>
        <mxCell id="x8Y7XP5aTs2LB0hAcxVO-1" value="&lt;span style=&quot;font-size: 10px;&quot;&gt;out_reason&lt;/span&gt;" style="ellipse;whiteSpace=wrap;html=1;align=center;aspect=fixed;" parent="1" vertex="1">
          <mxGeometry x="746" y="42" width="60" height="24" as="geometry" />
        </mxCell>
        <mxCell id="x8Y7XP5aTs2LB0hAcxVO-2" style="edgeStyle=none;rounded=0;orthogonalLoop=1;jettySize=auto;html=1;exitX=0.5;exitY=0;exitDx=0;exitDy=0;entryX=0.5;entryY=1;entryDx=0;entryDy=0;" parent="1" source="Ft5KNVJqhhJHQfR0YhRU-4" target="x8Y7XP5aTs2LB0hAcxVO-1" edge="1">
          <mxGeometry relative="1" as="geometry">
            <mxPoint x="707" y="90" as="sourcePoint" />
          </mxGeometry>
        </mxCell>
        <mxCell id="r4vSwaDR5NBjV3LfSyJe-17" value="has" style="shape=rhombus;perimeter=rhombusPerimeter;whiteSpace=wrap;html=1;align=center;" parent="1" vertex="1">
          <mxGeometry x="437" y="189" width="95" height="58" as="geometry" />
        </mxCell>
        <mxCell id="r4vSwaDR5NBjV3LfSyJe-18" value="1" style="endArrow=none;html=1;rounded=0;entryX=0.25;entryY=0;entryDx=0;entryDy=0;exitX=0.5;exitY=1;exitDx=0;exitDy=0;" parent="1" source="r4vSwaDR5NBjV3LfSyJe-17" target="t8pa7TZtYhBp_Gp-vG2y-1" edge="1">
          <mxGeometry relative="1" as="geometry">
            <mxPoint x="420.49" y="267" as="sourcePoint" />
            <mxPoint x="425.74130849997914" y="310.87817605686337" as="targetPoint" />
          </mxGeometry>
        </mxCell>
        <mxCell id="r4vSwaDR5NBjV3LfSyJe-19" value="" style="shape=link;html=1;rounded=0;entryX=0.25;entryY=1;entryDx=0;entryDy=0;exitX=0.5;exitY=0;exitDx=0;exitDy=0;" parent="1" source="r4vSwaDR5NBjV3LfSyJe-17" target="AIhlM_fXGX7BydyJeOwd-48" edge="1">
          <mxGeometry relative="1" as="geometry">
            <mxPoint x="295" y="371" as="sourcePoint" />
            <mxPoint x="297" y="273" as="targetPoint" />
          </mxGeometry>
        </mxCell>
        <mxCell id="r4vSwaDR5NBjV3LfSyJe-20" value="N" style="resizable=0;html=1;whiteSpace=wrap;align=right;verticalAlign=bottom;" parent="r4vSwaDR5NBjV3LfSyJe-19" connectable="0" vertex="1">
          <mxGeometry x="1" relative="1" as="geometry">
            <mxPoint x="-2" y="20" as="offset" />
          </mxGeometry>
        </mxCell>
      </root>
    </mxGraphModel>
  </diagram>
</mxfile>
